<?xml version="1.0" standalone="no"?>
<!DOCTYPE svg PUBLIC "-//W3C//DTD SVG 20010904//EN"
 "http://www.w3.org/TR/2001/REC-SVG-20010904/DTD/svg10.dtd">
<svg version="1.0" xmlns="http://www.w3.org/2000/svg"
 width="1266.000000pt" height="1266.000000pt" viewBox="0 0 1266.000000 1266.000000"
 preserveAspectRatio="xMidYMid meet">
<metadata>
Created by potrace 1.14, written by Peter Selinger 2001-2017
</metadata>
<g transform="translate(0.000000,1266.000000) scale(0.100000,-0.100000)"
fill="#000000" stroke="none">
<path d="M2660 8538 c0 -4 -7 -5 -15 -2 -9 4 -15 0 -15 -8 0 -8 7 -15 15 -15
8 0 15 3 15 7 0 3 9 6 20 6 11 0 20 -4 20 -8 0 -5 9 -4 20 2 31 16 24 25 -20
25 -22 1 -40 -3 -40 -7z"/>
<path d="M2733 8520 c-14 -11 -32 -16 -48 -13 -14 3 -25 1 -25 -4 0 -12 50
-11 69 1 14 9 75 17 67 9 -8 -8 29 -40 41 -36 6 3 16 -5 23 -16 7 -13 7 -21 1
-21 -6 0 -8 -7 -5 -15 4 -8 10 -12 15 -9 5 3 6 10 3 16 -4 7 -2 8 5 4 6 -4 9
-11 6 -15 -2 -5 2 -17 11 -27 14 -18 15 -18 8 6 -4 13 -16 38 -28 55 -11 16
-22 31 -23 33 0 2 -9 5 -20 7 -10 1 -17 8 -15 14 1 6 -2 11 -8 11 -18 0 -25 2
-40 10 -10 5 -23 2 -37 -10z"/>
<path d="M2585 8512 c-36 -22 -60 -50 -51 -59 3 -3 6 -1 6 5 0 6 8 9 18 6 15
-5 15 -4 2 6 -13 10 -12 11 4 6 14 -5 17 -2 12 9 -3 9 -2 13 4 10 6 -3 10 -1
10 5 0 7 8 9 20 5 15 -5 18 -3 14 9 -7 19 -3 20 -39 -2z"/>
<path d="M2635 8500 c-4 -6 -13 -9 -21 -6 -7 3 -18 -3 -24 -14 -13 -25 -13
-39 1 -20 9 13 10 13 7 0 -3 -10 -17 -14 -46 -13 -44 1 -47 -2 -59 -64 -8 -44
-10 -87 -4 -98 3 -5 6 -16 7 -23 5 -29 14 -43 26 -36 7 5 9 2 5 -8 -7 -19 52
-78 72 -70 8 3 11 0 7 -7 -4 -6 -4 -11 1 -12 4 0 17 -3 28 -5 41 -10 104 -10
98 0 -4 5 1 7 12 3 32 -13 162 82 135 98 -6 4 -10 1 -10 -6 0 -7 -3 -9 -6 -6
-4 4 -2 12 4 20 6 7 7 18 3 26 -5 7 -7 24 -5 37 2 19 -1 24 -13 20 -8 -3 -17
-6 -19 -6 -2 0 -4 -5 -4 -11 0 -5 5 -7 10 -4 6 3 10 1 10 -5 0 -7 -6 -10 -13
-7 -9 3 -14 -4 -14 -23 0 -19 5 -26 13 -23 7 2 10 12 7 21 -4 14 -3 14 5 3 7
-9 7 -23 1 -38 -12 -32 -11 -36 3 -27 7 5 8 3 4 -5 -5 -7 -10 -10 -14 -7 -3 3
-11 -2 -17 -11 -11 -14 -12 -12 -10 18 2 28 -1 35 -16 36 -10 1 -19 -2 -19 -8
0 -5 4 -9 9 -9 4 0 8 -10 7 -22 -1 -13 3 -27 9 -31 5 -5 -1 -5 -14 -2 -15 5
-21 3 -17 -3 3 -6 1 -14 -5 -18 -8 -5 -9 -3 -4 6 6 10 4 12 -9 7 -11 -5 -15
-3 -10 5 5 8 2 9 -10 5 -10 -4 -21 -7 -24 -7 -4 0 -1 -4 6 -9 11 -7 10 -9 -3
-14 -10 -4 -14 -3 -10 4 4 6 -3 7 -21 3 -22 -6 -26 -4 -21 9 4 11 0 15 -14 14
-10 -1 -19 -8 -19 -17 0 -13 -1 -13 -10 0 -6 10 -5 17 6 23 15 9 10 27 -7 27
-6 0 -8 -4 -4 -9 3 -5 0 -13 -6 -17 -15 -9 -29 15 -21 35 5 14 3 14 -11 3 -12
-10 -21 -11 -34 -3 -12 7 -13 10 -4 11 11 0 11 3 1 15 -7 8 -15 13 -19 11 -4
-3 -7 5 -8 17 0 12 1 16 4 10 7 -19 19 -15 20 6 1 14 -3 18 -13 14 -8 -3 -14
-1 -15 3 0 5 -2 21 -4 37 -2 15 1 27 6 27 6 0 7 -4 4 -10 -3 -5 -2 -10 3 -10
8 0 22 22 22 35 0 2 -9 2 -21 0 -15 -3 -18 -1 -12 8 5 7 8 22 7 35 0 12 3 22
8 22 5 0 7 -10 4 -22 l-6 -23 11 23 c13 23 49 31 49 10 0 -7 8 -1 18 13 10 15
25 25 35 23 10 -1 16 3 14 9 -2 7 -11 11 -20 9 -8 -1 -18 1 -21 6 -6 10 24 9
42 -2 14 -8 16 3 3 23 -6 10 -10 10 -16 1z m-54 -337 c13 -16 12 -17 -3 -4
-10 7 -18 15 -18 17 0 8 8 3 21 -13z"/>
<path d="M2726 8489 c-14 -11 -26 -26 -26 -32 0 -7 10 -1 21 13 16 20 18 21
10 4 -10 -20 -6 -34 10 -34 4 0 6 8 5 18 0 9 6 17 14 17 8 0 17 3 20 6 3 4 12
0 20 -9 13 -14 12 -15 -2 -10 -9 4 -18 1 -21 -6 -3 -8 4 -13 23 -13 25 0 27 2
18 23 -8 17 -45 44 -62 44 -2 0 -15 -9 -30 -21z"/>
<path d="M2661 8463 c-6 -13 -14 -23 -18 -22 -35 6 -63 -32 -42 -57 9 -11 9
-14 -2 -14 -9 0 -10 -3 -4 -8 6 -4 10 -13 10 -21 0 -8 5 -16 10 -18 6 -2 11 6
11 17 0 11 -4 20 -9 20 -4 0 -5 5 -2 10 4 6 1 19 -7 28 -12 16 -11 16 6 2 18
-14 18 -13 12 10 -6 20 -5 22 4 10 11 -13 11 -13 7 0 -6 21 50 20 63 0 9 -14
14 -7 11 13 -1 5 3 6 9 2 8 -5 7 -11 -1 -21 -6 -8 -10 -17 -7 -19 3 -3 11 1
18 10 16 19 -4 47 -27 38 -13 -5 -15 -1 -10 19 9 33 -17 34 -32 1z"/>
<path d="M2750 8460 c0 -5 5 -10 10 -10 6 0 10 5 10 10 0 6 -4 10 -10 10 -5 0
-10 -4 -10 -10z"/>
<path d="M2832 8440 c0 -16 4 -30 10 -30 6 0 8 -3 4 -7 -4 -4 -16 3 -26 17
-18 24 -20 24 -37 8 -10 -11 -13 -18 -5 -18 7 0 12 5 12 11 0 5 5 7 11 3 8 -4
7 -9 -2 -15 -8 -5 -11 -9 -6 -10 4 -1 12 -3 17 -4 6 -1 15 -3 21 -4 5 0 7 -5
4 -11 -3 -5 -2 -10 3 -10 15 0 23 30 13 47 -4 9 -6 24 -4 34 3 11 1 19 -4 19
-6 0 -10 -13 -11 -30z"/>
<path d="M2750 8427 c0 -8 -9 -22 -20 -32 -19 -17 -20 -17 -31 8 -12 26 -31
29 -51 9 -14 -14 -21 -85 -8 -77 6 4 8 17 6 30 -6 31 1 36 33 23 38 -14 62
-18 56 -9 -10 17 29 22 41 6 7 -10 15 -12 18 -6 4 5 -2 15 -13 21 -12 6 -18
16 -15 25 4 8 1 15 -5 15 -6 0 -11 -6 -11 -13z m-65 -25 c-3 -3 -11 0 -18 7
-9 10 -8 11 6 5 10 -3 15 -9 12 -12z"/>
<path d="M2537 8397 c-14 -22 -14 -24 1 -24 10 0 24 5 32 10 12 9 13 9 3 -3
-9 -10 -10 -17 -2 -27 9 -9 8 -17 -2 -29 -11 -13 -11 -15 2 -14 27 4 40 0 33
-11 -4 -8 -9 -7 -15 2 -5 8 -9 9 -9 3 0 -6 -7 -11 -15 -11 -8 0 -13 3 -10 5 3
3 0 11 -7 19 -9 11 -8 13 2 11 7 -2 15 3 18 11 3 9 0 11 -8 6 -9 -6 -11 -4 -6
6 4 8 1 5 -8 -6 -8 -11 -20 -25 -26 -32 -6 -8 -6 -14 0 -18 6 -3 10 0 10 7 1
9 4 8 10 -3 5 -9 7 -26 5 -39 -5 -27 2 -43 17 -34 6 4 5 10 -3 15 -11 7 -10 9
4 9 10 0 15 5 12 10 -4 6 -11 7 -17 4 -7 -4 -8 -2 -4 5 4 6 12 9 17 6 5 -4 9
-1 9 5 0 6 5 8 11 5 5 -4 19 1 29 10 16 15 22 15 38 3 10 -7 18 -21 16 -31 -1
-10 3 -16 9 -14 7 3 11 10 9 17 -1 7 3 18 9 26 10 12 7 14 -12 12 -20 -3 -23
1 -21 22 l4 25 -22 -22 c-11 -13 -25 -23 -29 -23 -15 0 -31 26 -35 57 -6 57
-24 67 -49 30z"/>
<path d="M2870 8403 c0 -25 -2 -28 -17 -37 -11 -6 -20 -4 -28 8 -11 14 -14 14
-24 2 -13 -15 -45 -11 -35 5 3 5 1 9 -4 9 -6 0 -13 -7 -16 -16 -8 -20 -8 -24
2 -23 17 3 32 -2 32 -9 0 -5 -6 -9 -12 -10 -7 0 -23 -3 -36 -6 -20 -4 -21 -3
-11 15 6 12 8 23 5 27 -3 3 -6 3 -6 -1 0 -3 -16 1 -35 9 -39 16 -44 5 -11 -29
15 -16 16 -21 5 -29 -11 -8 -10 -9 4 -4 20 6 47 -2 47 -15 0 -5 -6 -8 -12 -6
-7 1 -13 -6 -13 -15 0 -23 -20 -42 -34 -33 -6 3 -9 10 -6 14 2 5 -2 17 -9 27
-14 18 -15 18 -33 1 -11 -9 -25 -17 -32 -17 -7 0 -10 -4 -7 -9 3 -5 -4 -20
-15 -35 -11 -14 -16 -26 -10 -26 5 0 14 7 19 16 8 15 10 15 16 -1 3 -9 4 -21
1 -25 -3 -5 0 -12 6 -16 7 -4 9 -3 5 4 -3 6 -2 14 4 17 14 9 42 -14 33 -28 -3
-6 -1 -7 5 -3 7 4 20 2 29 -3 13 -7 14 -10 4 -11 -8 0 -12 -3 -9 -6 9 -9 68
25 68 39 0 8 -4 7 -11 -3 -9 -13 -10 -13 -6 0 2 8 12 13 22 12 16 -3 17 -1 6
12 -7 8 -9 20 -5 27 4 7 2 10 -7 7 -8 -3 -14 -9 -14 -14 -1 -5 -6 -19 -13 -30
-6 -12 -9 -24 -7 -28 3 -3 2 -3 -2 0 -5 3 -8 11 -8 17 0 5 -6 12 -13 15 -6 2
-10 -2 -9 -10 2 -7 2 -10 0 -5 -3 4 -9 5 -14 2 -5 -4 -6 1 -3 10 4 11 2 14 -9
9 -19 -7 -32 13 -18 30 6 7 8 16 4 19 -9 9 -23 9 -22 0 1 -5 1 -17 -1 -28 l-1
-20 -9 20 c-6 15 -3 25 12 38 11 9 25 17 32 17 6 0 4 -5 -4 -11 -13 -9 -13
-10 1 -6 12 4 15 -1 13 -19 -2 -19 4 -28 22 -35 32 -12 31 -12 31 6 0 11 -7
14 -21 10 -14 -4 -12 -1 7 10 22 13 27 21 22 38 -4 13 -3 17 2 10 10 -14 28
-4 28 17 0 8 7 15 15 15 8 0 21 9 28 20 10 16 12 16 8 3 -3 -10 -2 -18 3 -18
16 0 20 13 10 32 -9 17 -8 18 10 9 11 -6 23 -16 27 -23 4 -6 3 -8 -3 -5 -6 4
-16 0 -23 -8 -7 -8 -19 -15 -26 -15 -8 0 -14 -5 -14 -11 0 -6 7 -8 16 -5 14 5
15 4 4 -9 -8 -10 -9 -15 -1 -15 6 0 11 -5 11 -11 0 -8 -5 -8 -15 1 -8 7 -15 8
-15 2 0 -5 6 -15 14 -21 11 -9 15 -8 20 5 3 9 4 20 1 24 -3 5 0 20 6 33 18 39
89 24 73 -16 -3 -9 -11 -14 -18 -10 -6 4 -5 -1 2 -10 8 -9 11 -21 7 -27 -3 -5
-2 -10 4 -10 8 0 18 41 26 105 1 14 -3 29 -10 33 -6 4 -17 16 -23 27 -6 11
-12 14 -12 8z m-171 -47 c9 -11 9 -16 0 -22 -7 -4 -9 -3 -5 4 3 6 -2 15 -11
21 -10 6 -13 11 -7 11 6 0 17 -6 23 -14z m181 4 c-8 -5 -19 -10 -25 -10 -5 0
-3 5 5 10 8 5 20 10 25 10 6 0 3 -5 -5 -10z m10 -20 c0 -5 -5 -10 -11 -10 -5
0 -7 5 -4 10 3 6 8 10 11 10 2 0 4 -4 4 -10z"/>
<path d="M2750 8300 c0 -5 6 -10 13 -11 6 0 3 -5 -8 -10 -12 -6 -27 -20 -35
-32 -12 -20 -11 -21 2 -9 9 7 23 9 33 6 13 -5 14 -9 4 -15 -10 -6 -10 -11 0
-22 8 -10 9 -17 1 -22 -13 -8 -13 -25 0 -25 6 0 10 8 10 18 0 15 2 15 11 2 9
-12 9 -11 3 5 -4 11 -8 40 -9 65 -1 25 -3 48 -4 53 -2 11 -21 9 -21 -3z"/>
<path d="M2875 8300 c3 -5 8 -10 11 -10 2 0 4 5 4 10 0 6 -5 10 -11 10 -5 0
-7 -4 -4 -10z"/>
<path d="M2637 8233 c-10 -9 -9 -23 1 -23 5 0 9 7 9 15 0 17 -1 18 -10 8z"/>
<path d="M2826 8215 c-9 -26 -7 -32 5 -12 6 10 9 21 6 23 -2 3 -7 -2 -11 -11z"/>
<path d="M1253 7962 c-13 -2 -23 -8 -23 -13 0 -6 -4 -8 -9 -4 -5 3 -12 1 -16
-5 -4 -6 -10 -8 -15 -5 -4 3 -13 -2 -20 -10 -9 -11 -8 -14 9 -12 12 1 21 6 21
12 0 5 4 4 9 -4 7 -10 12 -8 24 9 11 15 16 18 20 8 4 -10 6 -10 6 0 1 15 41
16 41 0 0 -6 7 -3 16 8 14 18 15 18 4 -4 -9 -18 -8 -27 1 -38 9 -11 9 -14 -1
-14 -7 0 -1 -9 13 -20 31 -24 50 -26 22 -2 -14 12 -20 30 -20 57 0 37 -2 39
-30 40 -17 1 -40 -1 -52 -3z"/>
<path d="M4068 7959 c-7 -4 -16 -5 -20 -3 -4 3 -5 -2 -2 -11 5 -13 9 -13 23
-3 13 10 14 10 4 -2 -18 -20 -16 -35 2 -20 9 7 13 20 10 29 -5 13 -4 13 6 4 9
-9 9 -15 0 -26 -9 -11 -8 -17 4 -27 12 -10 14 -7 11 25 -2 33 -1 35 11 19 10
-14 10 -19 0 -26 -9 -6 -8 -8 3 -8 11 0 11 -3 2 -12 -18 -18 -15 -33 3 -18 9
7 14 19 11 27 -3 7 -1 13 4 13 6 0 5 9 -1 23 -10 23 -46 31 -71 16z"/>
<path d="M4145 7955 c12 -31 8 -55 -11 -76 -9 -11 -14 -22 -11 -25 3 -4 16 9
27 27 15 23 19 27 15 12 -5 -17 -3 -22 8 -17 8 3 14 13 13 22 -1 10 6 16 17
16 9 -1 17 3 17 8 0 6 6 5 15 -2 8 -7 15 -8 15 -4 0 5 -9 15 -20 22 -17 10
-23 10 -36 -3 -16 -16 -39 -11 -29 6 4 5 8 9 11 9 3 0 2 -5 -2 -12 -4 -7 -3
-8 4 -4 18 11 14 29 -5 22 -9 -4 -21 -1 -26 6 -6 9 -6 6 -2 -7z"/>
<path d="M1347 7953 c-9 -15 2 -65 18 -83 22 -24 0 -38 -24 -16 -10 9 -21 13
-24 9 -4 -3 -7 -2 -8 3 -4 43 -7 56 -17 66 -9 9 -15 9 -23 1 -15 -15 -1 -36
20 -28 12 5 13 4 4 -6 -10 -10 -16 -9 -29 2 -16 12 -17 12 -12 -2 4 -9 0 -28
-7 -43 -14 -26 -10 -33 10 -18 6 4 10 14 10 22 0 8 7 15 15 15 8 0 14 -8 13
-18 -1 -13 4 -17 14 -12 9 3 30 -3 48 -14 l33 -19 0 27 c0 14 -5 29 -12 33 -8
6 -8 8 1 8 7 0 10 6 7 13 -3 8 3 20 12 28 10 8 15 9 11 3 -8 -14 18 -38 32
-30 6 4 15 -4 21 -16 10 -21 10 -22 -3 -5 -9 10 -18 14 -21 9 -8 -13 20 -36
33 -28 6 4 8 -2 6 -14 -2 -11 0 -18 5 -15 5 3 11 2 14 -3 3 -5 -1 -9 -9 -10
-8 -1 -22 -3 -30 -4 -9 -1 -14 -7 -10 -15 3 -8 5 -17 5 -19 0 -2 5 -4 10 -4 5
0 9 6 8 13 -2 6 3 12 11 12 8 0 15 -6 17 -13 1 -7 0 -8 -3 -2 -7 15 -20 12
-20 -5 0 -8 6 -16 14 -19 7 -3 13 -1 13 5 0 6 4 7 10 4 7 -4 7 2 1 18 -6 14
-7 28 -3 32 3 3 2 9 -3 13 -6 4 -19 23 -29 42 -10 20 -34 46 -53 59 -19 12
-32 18 -28 12 6 -10 -7 -16 -28 -12 -5 1 -6 -9 -2 -21 5 -19 4 -20 -5 -6 -13
21 -2 56 12 36 8 -10 9 -10 6 1 -5 17 -24 26 -31 14z"/>
<path d="M4024 7943 c4 -7 -3 -13 -16 -15 -14 -2 -24 -11 -26 -23 -2 -12 0
-16 5 -9 4 6 19 17 33 23 24 12 24 12 -2 -11 -15 -12 -26 -31 -25 -40 4 -23
17 -35 18 -17 1 8 2 21 3 29 0 8 7 14 14 13 6 -2 12 3 12 10 0 8 4 7 10 -3 5
-8 10 -10 10 -4 0 7 -9 22 -21 35 -11 13 -18 19 -15 12z"/>
<path d="M1231 7916 c-7 -8 -10 -20 -6 -26 3 -5 2 -10 -2 -10 -5 0 -9 -9 -9
-20 0 -11 5 -19 11 -17 5 2 10 10 10 18 0 8 5 17 10 21 6 5 5 8 -4 8 -11 0
-11 3 -1 15 7 9 11 18 8 20 -3 3 -11 -1 -17 -9z"/>
<path d="M1141 7906 c4 -4 -3 -17 -16 -30 -16 -17 -21 -30 -18 -50 3 -15 8
-24 12 -21 9 10 8 29 -4 38 -5 5 1 5 14 2 17 -5 22 -4 16 5 -5 8 -4 11 2 7 6
-4 13 0 17 8 7 18 2 19 -27 4 -18 -9 -20 -9 -10 1 7 7 25 14 42 15 23 1 29 -2
26 -17 -2 -10 0 -18 4 -18 4 0 8 13 9 28 0 19 -5 29 -14 29 -8 0 -14 -4 -14
-9 0 -5 -10 -3 -22 3 -13 6 -20 9 -17 5z"/>
<path d="M1390 7903 c0 -6 6 -14 13 -16 9 -4 9 -6 -1 -6 -9 -1 -10 -6 -2 -20
7 -14 6 -21 -3 -24 -9 -4 -8 -6 2 -6 10 -1 11 -4 2 -15 -6 -7 -9 -21 -5 -30 9
-24 21 -10 19 23 -2 31 19 49 31 29 4 -7 3 -8 -4 -4 -7 4 -13 0 -14 -11 -2
-33 -3 -38 -12 -51 -6 -10 -3 -12 10 -10 15 2 19 -3 17 -24 -2 -22 2 -26 23
-23 13 1 27 -2 31 -8 4 -6 1 -7 -7 -2 -8 5 -11 3 -8 -5 7 -22 24 -22 25 -1 1
10 -6 26 -15 35 -9 8 -27 25 -40 36 -23 21 -25 47 -4 43 24 -5 14 25 -20 61
-21 22 -38 35 -38 29z m85 -163 c3 -5 1 -10 -4 -10 -6 0 -11 5 -11 10 0 6 2
10 4 10 3 0 8 -4 11 -10z"/>
<path d="M3951 7888 c-11 -18 -11 -20 3 -15 8 3 18 1 22 -5 5 -7 2 -8 -6 -3
-10 6 -12 4 -7 -9 4 -10 3 -15 -3 -11 -6 3 -10 1 -10 -5 0 -7 8 -9 20 -5 16 5
20 2 20 -14 0 -12 4 -21 9 -21 11 0 9 19 -4 40 -5 8 -10 20 -11 27 -1 6 -6 18
-11 27 -7 13 -10 13 -22 -6z"/>
<path d="M4074 7902 c6 -11 -6 -16 -26 -13 -11 1 -10 -4 3 -33 7 -14 17 -22
25 -19 8 3 11 9 8 14 -3 5 -10 7 -15 4 -5 -4 -9 -1 -9 4 0 6 5 11 10 11 6 0
12 0 15 0 3 0 5 -3 4 -6 0 -4 5 -11 13 -15 9 -6 10 -9 1 -9 -7 0 -10 -6 -7
-14 3 -8 0 -17 -6 -21 -16 -10 7 -35 33 -35 19 0 16 14 -4 16 -5 1 -11 2 -14
3 -2 0 0 13 5 27 10 26 -7 75 -31 90 -8 4 -9 3 -5 -4z"/>
<path d="M4190 7900 c0 -5 5 -10 10 -10 6 0 10 5 10 10 0 6 -4 10 -10 10 -5 0
-10 -4 -10 -10z"/>
<path d="M4209 7890 c-9 -10 -23 -20 -30 -22 -8 -3 -10 -9 -5 -14 5 -5 11 -3
14 5 3 10 9 7 19 -10 11 -19 13 -20 9 -4 -8 28 5 43 35 42 19 -2 25 -6 21 -20
-3 -13 0 -16 14 -11 15 5 16 4 4 -4 -8 -6 -18 -8 -22 -6 -4 3 -8 1 -8 -5 0 -6
10 -15 22 -22 18 -10 20 -9 15 5 -4 9 -2 16 3 16 9 0 15 -31 11 -54 -1 -5 4
-13 11 -17 11 -7 10 -9 -1 -9 -9 0 -11 -8 -7 -24 3 -14 1 -28 -4 -31 -11 -7
-4 -25 8 -25 9 0 14 33 13 85 -1 57 -1 58 -31 101 -29 43 -64 53 -91 24z"/>
<path d="M4023 7870 c2 -13 9 -26 16 -28 10 -3 10 0 1 19 -18 34 -21 36 -17 9z"/>
<path d="M4229 7878 c-8 -18 -4 -66 5 -64 6 2 8 1 4 -1 -5 -3 -8 -9 -8 -14 0
-11 23 -7 32 6 5 6 8 5 8 -3 0 -7 4 -11 8 -8 4 2 8 -4 8 -15 0 -10 -5 -19 -11
-19 -5 0 -4 -4 4 -9 9 -6 10 -11 2 -15 -6 -4 -11 -12 -11 -18 0 -6 7 -5 17 3
15 13 15 12 -1 -12 -15 -25 -15 -27 0 -33 11 -4 15 -2 11 8 -3 7 -1 18 5 24 7
7 6 17 -1 31 -7 12 -8 21 -2 21 21 0 4 37 -27 55 -24 15 -29 24 -21 32 12 12
4 33 -12 33 -5 0 -9 -1 -10 -2z"/>
<path d="M1170 7856 c0 -8 -9 -18 -20 -21 -11 -4 -18 -10 -16 -14 3 -4 0 -13
-5 -21 -8 -13 -12 -12 -24 4 -15 19 -15 19 -16 -5 -3 -41 1 -83 10 -131 2 -11
35 -2 39 10 2 7 -2 10 -11 6 -9 -3 -16 3 -20 18 -6 22 -5 22 8 4 11 -15 15
-16 15 -5 0 8 -10 26 -21 38 l-22 23 24 -7 c21 -7 22 -6 10 8 -7 9 -18 14 -24
10 -6 -4 -7 -1 -3 6 6 9 12 9 25 -3 21 -19 38 -21 23 -3 -7 8 -8 18 -1 27 8
12 9 11 7 -4 -2 -10 2 -21 9 -23 6 -2 10 4 9 14 -2 10 6 24 16 31 17 12 22 12
39 -4 18 -16 20 -16 39 1 16 15 22 15 35 5 10 -8 15 -9 15 -1 0 6 5 11 11 11
8 0 8 -5 -1 -15 -15 -18 1 -20 19 -2 10 10 11 9 6 -5 -5 -11 -1 -16 11 -15 13
2 18 -6 18 -27 1 -20 8 -31 24 -37 12 -5 25 -16 29 -24 3 -10 12 -14 22 -10
13 5 14 4 3 -7 -12 -11 -17 -9 -29 10 -9 12 -20 22 -25 22 -5 0 -2 -10 6 -21
8 -12 12 -29 9 -38 -5 -13 -3 -14 8 -3 16 15 29 16 29 2 0 -5 -5 -9 -11 -7 -6
1 -14 -4 -16 -11 -3 -7 1 -10 10 -6 8 3 17 -2 20 -10 9 -22 -9 -29 -27 -10
-10 10 -16 11 -16 4 0 -7 -9 -2 -20 11 -22 28 -27 14 -5 -15 18 -24 52 -31 72
-15 9 8 12 25 9 53 -4 31 -3 37 5 24 5 -10 15 -18 21 -18 6 0 1 11 -12 25 -12
13 -28 23 -34 22 -6 -1 -11 10 -10 25 1 15 -2 25 -7 23 -14 -9 -37 7 -43 31
-4 13 -19 30 -34 38 -31 15 -94 14 -100 -2 -2 -7 -16 -3 -38 10 -18 11 -31 24
-28 29 3 5 0 9 -5 9 -6 0 -11 -6 -11 -14z m5 -26 c-3 -5 -12 -10 -18 -10 -7 0
-6 4 3 10 19 12 23 12 15 0z"/>
<path d="M1270 7860 c0 -5 5 -10 10 -10 6 0 10 5 10 10 0 6 -4 10 -10 10 -5 0
-10 -4 -10 -10z"/>
<path d="M4142 7857 c-13 -15 -37 -75 -26 -64 11 10 34 -12 28 -28 -3 -8 -11
-12 -18 -9 -7 3 -19 -2 -26 -11 -15 -18 0 -21 18 -3 9 9 12 9 12 0 0 -7 5 -12
11 -12 5 0 7 5 3 11 -4 8 0 8 15 0 11 -7 21 -8 21 -4 0 4 7 -3 16 -15 12 -17
19 -20 34 -12 13 7 21 7 26 -2 5 -7 3 -8 -6 -3 -9 5 -11 4 -6 -3 14 -24 22
-11 23 38 1 44 -1 48 -12 33 -8 -11 -10 -22 -4 -29 5 -7 4 -11 -4 -11 -6 0
-19 -2 -27 -4 -11 -3 -14 3 -12 20 2 20 0 22 -12 12 -11 -9 -20 -10 -33 -2
-13 7 -14 10 -4 11 11 0 8 6 -7 20 -26 24 -27 33 -8 49 18 15 39 -8 26 -29 -5
-8 -6 -18 -4 -22 6 -10 24 -11 23 0 -3 20 2 32 12 26 8 -4 7 -9 -2 -15 -14 -8
-12 -10 14 -13 6 -1 10 -10 9 -21 -3 -16 -2 -17 12 -6 17 15 22 36 6 26 -5 -3
-15 5 -22 19 -6 14 -15 26 -20 26 -5 0 -6 5 -2 12 5 7 3 8 -6 3 -8 -5 -18 -2
-25 9 -10 13 -14 14 -23 3z"/>
<path d="M3927 7846 c-3 -8 0 -20 8 -26 10 -8 13 -5 11 15 -1 28 -11 33 -19
11z"/>
<path d="M4013 7825 c0 -10 7 -14 21 -10 12 3 15 2 8 -1 -10 -5 -8 -10 7 -20
11 -8 18 -21 15 -28 -7 -19 15 -31 29 -16 9 9 7 15 -7 26 -16 11 -17 17 -8 26
17 17 15 27 -5 26 -10 -1 -27 2 -39 5 -15 5 -21 3 -21 -8z"/>
<path d="M4145 7829 c-4 -6 -2 -16 5 -22 10 -9 11 -9 6 0 -3 6 -1 13 6 15 9 3
9 6 1 11 -7 4 -15 2 -18 -4z"/>
<path d="M3960 7815 c-7 -9 -11 -18 -8 -20 3 -3 11 1 18 10 7 9 11 18 8 20 -3
3 -11 -1 -18 -10z"/>
<path d="M1181 7801 c-6 -10 -8 -21 -5 -24 3 -3 -9 -13 -26 -22 -39 -20 -28
-41 13 -26 19 7 25 16 23 35 -2 18 1 23 13 19 14 -4 14 -3 1 6 -9 7 -10 11 -3
11 17 0 25 -17 13 -25 -8 -5 -8 -11 0 -20 7 -8 9 -18 6 -24 -3 -5 1 -12 10
-15 12 -5 14 -1 9 17 -11 35 -11 41 2 42 21 0 27 15 6 15 -12 0 -23 7 -27 15
-7 20 -23 19 -35 -4z"/>
<path d="M1267 7814 c-12 -13 -7 -20 13 -20 11 0 19 5 17 10 -4 13 -21 18 -30
10z"/>
<path d="M3913 7813 c4 -3 1 -13 -6 -21 -9 -13 -9 -14 1 -8 7 4 12 2 12 -6 0
-10 3 -9 11 2 9 13 10 13 6 0 -2 -8 -11 -14 -20 -12 -12 2 -14 -4 -11 -25 3
-16 5 -34 6 -40 1 -7 5 -13 9 -13 4 0 5 -8 2 -19 -3 -12 3 -24 16 -33 12 -8
18 -18 14 -21 -3 -4 -1 -7 5 -7 6 0 14 -9 17 -21 4 -11 9 -18 13 -15 3 3 13
-1 22 -9 9 -8 25 -16 36 -18 10 -1 24 -6 31 -10 6 -4 14 -1 16 5 4 10 7 10 14
1 7 -10 31 -11 53 -3 3 1 10 3 15 4 34 5 64 22 93 53 34 36 36 41 24 59 -8 13
-53 39 -67 39 -5 1 -21 8 -35 17 -14 9 -40 15 -60 13 -43 -3 -94 23 -79 41 7
9 5 15 -8 22 -27 14 -76 9 -81 -8 -4 -11 -2 -13 9 -5 8 6 6 2 -4 -7 -11 -11
-14 -18 -7 -18 10 0 10 -3 1 -14 -10 -12 -9 -20 3 -39 9 -13 14 -26 11 -29 -3
-3 6 -13 20 -22 14 -9 25 -12 25 -7 0 6 -8 15 -17 20 -10 6 -13 11 -7 11 5 0
16 -6 23 -12 11 -11 13 -10 7 5 -3 10 -6 20 -6 23 0 2 -6 1 -14 -2 -17 -7 -29
11 -31 46 -1 19 6 31 26 42 27 16 27 16 24 -12 -3 -21 0 -27 13 -26 9 0 16 -5
15 -11 -2 -7 -4 -18 -5 -24 -2 -6 2 -13 8 -16 7 -2 11 4 10 14 0 10 6 18 14
18 8 0 14 -8 14 -17 -1 -10 2 -18 7 -18 5 0 6 -6 3 -13 -3 -8 2 -20 11 -27 9
-8 15 -8 15 -2 0 6 -5 14 -11 18 -8 4 -7 9 2 15 8 5 9 9 4 9 -6 0 -11 9 -11
20 0 12 4 16 9 11 5 -5 10 -21 10 -35 0 -21 2 -23 18 -13 16 10 16 12 1 23
-13 10 -14 15 -5 25 10 10 17 9 33 -6 11 -10 30 -19 42 -20 22 -2 34 -30 17
-41 -12 -7 -12 -34 1 -34 6 0 9 6 8 13 -2 7 5 11 17 9 16 -3 18 -1 8 9 -7 7
-13 17 -13 23 0 5 6 1 14 -9 14 -19 11 -46 -4 -42 -4 1 -17 -9 -29 -23 -13
-14 -20 -19 -16 -12 3 6 1 12 -4 12 -6 0 -11 -6 -11 -14 0 -10 -10 -14 -36
-12 -24 2 -34 0 -31 -9 3 -6 0 -12 -7 -12 -6 0 -12 12 -11 26 0 19 5 25 17 23
9 -1 19 2 23 8 3 5 -1 10 -9 10 -9 0 -16 6 -16 13 0 6 -8 0 -18 -14 -10 -15
-25 -25 -35 -23 -10 1 -16 -3 -14 -9 2 -7 11 -11 20 -9 8 1 18 -1 21 -6 6 -10
-24 -9 -41 1 -6 4 -19 4 -30 1 -15 -5 -16 -4 -3 6 13 10 12 11 -3 6 -24 -8
-44 4 -26 15 7 4 21 4 30 -1 12 -7 21 -5 30 7 12 15 12 16 -3 10 -10 -3 -23 0
-30 7 -11 11 -15 11 -25 -3 -12 -14 -12 -14 -8 0 4 10 0 16 -10 16 -11 0 -14
-6 -9 -21 4 -17 3 -18 -5 -6 -6 8 -8 23 -5 34 4 13 3 16 -6 11 -8 -5 -11 -4
-7 2 4 6 0 14 -9 17 -12 5 -15 2 -10 -9 3 -9 2 -13 -4 -10 -6 3 -10 13 -10 21
0 11 6 14 23 9 15 -4 18 -3 9 3 -8 5 -13 12 -13 16 2 17 0 20 -8 8 -7 -11 -9
-10 -14 3 -4 9 -3 13 3 10 6 -3 10 -2 10 4 0 5 -8 15 -17 20 -10 6 -13 11 -7
11 5 0 15 -5 21 -11 7 -7 11 -2 11 18 0 33 -14 63 -30 63 -6 0 -8 -3 -5 -7z"/>
<path d="M1259 7774 c-6 -8 -15 -11 -20 -8 -5 3 -5 -6 1 -20 5 -14 7 -34 4
-43 -5 -15 -4 -16 5 -3 6 8 11 10 11 5 0 -16 39 -13 45 3 3 9 -1 12 -14 7 -22
-7 -44 16 -35 39 3 9 14 16 23 17 9 0 24 2 34 4 10 2 21 -3 24 -11 3 -8 10
-11 16 -7 6 4 7 1 2 -7 -4 -7 -2 -16 6 -21 11 -7 11 -9 1 -9 -7 0 -15 7 -19
16 -5 13 -8 13 -15 2 -7 -9 -8 -7 -4 8 5 14 2 21 -9 21 -18 0 -18 1 -5 -32 5
-14 14 -24 19 -21 5 4 16 -1 24 -9 9 -8 17 -11 20 -7 2 4 2 1 1 -5 -2 -7 1
-13 6 -13 5 0 7 -6 4 -13 -3 -8 2 -20 11 -27 18 -15 21 0 3 18 -9 9 -9 12 3
12 12 0 12 2 -1 10 -8 5 -11 10 -7 10 5 0 -1 14 -13 30 -12 17 -18 30 -14 30
3 0 1 6 -5 14 -9 11 -9 15 1 19 7 2 -11 4 -39 4 -32 0 -57 -5 -64 -13z"/>
<path d="M4180 7770 c-9 -6 -10 -10 -3 -10 6 0 15 5 18 10 8 12 4 12 -15 0z"/>
<path d="M4010 7759 c0 -5 -4 -8 -9 -5 -11 7 -22 -31 -14 -51 3 -8 11 -12 18
-9 19 7 46 -29 32 -43 -8 -8 -7 -16 6 -28 12 -13 17 -14 17 -4 0 11 3 11 15 1
8 -7 12 -17 9 -22 -4 -6 3 -5 15 1 25 14 26 24 6 41 -8 7 -15 19 -15 26 0 8
-4 14 -10 14 -5 0 -10 -9 -10 -21 0 -11 4 -18 9 -15 5 3 12 -1 15 -10 9 -25 7
-27 -10 -9 -9 9 -23 14 -32 10 -12 -4 -13 -3 -2 10 11 13 9 19 -6 36 -21 24
-21 28 -2 41 9 6 5 7 -11 3 -22 -7 -23 -5 -17 19 3 14 4 26 1 26 -3 0 -5 -5
-5 -11z m-5 -39 c3 -5 1 -10 -4 -10 -6 0 -11 5 -11 10 0 6 2 10 4 10 3 0 8 -4
11 -10z"/>
<path d="M1196 7752 c2 -3 -1 -11 -6 -17 -6 -7 -7 -20 -4 -30 5 -13 9 -14 16
-3 6 9 7 6 3 -10 -4 -12 -3 -22 2 -21 20 3 34 -2 28 -11 -3 -5 -2 -10 3 -10 6
0 13 7 16 16 8 20 8 24 -1 23 -20 -3 -34 2 -28 10 3 5 -4 13 -16 16 -17 6 -19
9 -8 16 10 6 11 11 3 17 -6 5 -9 7 -8 4z"/>
<path d="M1264 7749 c-10 -17 13 -36 27 -22 12 12 4 33 -11 33 -5 0 -12 -5
-16 -11z"/>
<path d="M1500 7740 c0 -5 5 -10 10 -10 6 0 10 5 10 10 0 6 -4 10 -10 10 -5 0
-10 -4 -10 -10z"/>
<path d="M2655 7740 c3 -5 -1 -7 -9 -4 -32 12 -173 -76 -159 -100 3 -6 3 -8
-2 -4 -4 4 -14 3 -22 -3 -10 -9 -11 -15 -2 -26 9 -11 9 -12 -3 -8 -18 7 -44
-47 -32 -66 4 -7 3 -10 -3 -6 -14 9 -19 -16 -17 -78 2 -87 4 -96 14 -90 6 3 7
-1 4 -10 -4 -8 -1 -21 5 -29 6 -7 8 -16 4 -19 -3 -4 -1 -7 5 -7 7 0 12 -7 12
-16 0 -10 6 -14 14 -11 10 4 13 1 10 -7 -8 -20 99 -101 150 -113 59 -14 107
-14 123 -2 12 10 15 10 9 2 -9 -16 -9 -16 47 3 26 9 45 20 41 25 -3 5 1 6 9 4
7 -3 26 6 41 20 15 14 30 25 34 25 9 0 46 62 44 73 -1 4 2 7 7 7 13 0 34 68
27 86 -4 9 -2 12 5 8 8 -4 9 14 5 61 -6 71 -52 182 -74 178 -7 -2 -11 3 -9 10
1 6 -4 11 -11 9 -8 -1 -11 2 -8 6 3 5 -3 17 -14 27 -11 10 -20 15 -20 11 0 -4
-7 -1 -15 8 -9 8 -32 20 -53 26 -50 16 -165 23 -157 10z m35 -80 c0 -5 -5 -10
-11 -10 -5 0 -7 5 -4 10 3 6 8 10 11 10 2 0 4 -4 4 -10z m74 2 c3 -5 -1 -9 -9
-9 -8 0 -12 4 -9 9 3 4 7 8 9 8 2 0 6 -4 9 -8z m166 -82 c0 -5 -2 -10 -4 -10
-3 0 -8 5 -11 10 -3 6 -1 10 4 10 6 0 11 -4 11 -10z m-245 -79 c3 -5 2 -12 -3
-15 -5 -3 -9 1 -9 9 0 17 3 19 12 6z m240 0 c3 -5 2 -12 -3 -15 -5 -3 -9 1 -9
9 0 17 3 19 12 6z m-235 -81 c0 -5 -5 -10 -11 -10 -5 0 -7 5 -4 10 3 6 8 10
11 10 2 0 4 -4 4 -10z m155 -159 c3 -5 2 -12 -3 -15 -5 -3 -9 1 -9 9 0 17 3
19 12 6z m82 -6 c0 -8 -4 -12 -9 -9 -5 3 -6 10 -3 15 9 13 12 11 12 -6z m-142
-83 c-3 -3 -11 0 -18 7 -9 10 -8 11 6 5 10 -3 15 -9 12 -12z"/>
<path d="M1145 7710 c-4 -6 -2 -17 4 -24 8 -10 5 -16 -14 -26 -14 -7 -25 -17
-25 -22 0 -5 5 -6 10 -3 6 3 10 -1 10 -9 0 -9 5 -16 11 -16 5 0 9 10 7 23 -2
18 2 22 22 22 33 0 72 -25 66 -41 -3 -8 -1 -14 4 -14 6 0 10 4 10 9 0 5 13 8
29 6 17 -2 34 2 41 10 10 11 4 13 -32 10 -29 -3 -38 -1 -28 5 8 5 24 7 35 4
16 -4 15 -2 -4 9 -17 10 -20 16 -10 19 8 3 10 9 6 14 -9 9 -28 -16 -21 -27 9
-15 -31 -20 -42 -5 -6 9 -14 13 -17 10 -3 -3 -13 8 -22 25 -16 32 -29 39 -40
21z m39 -36 c3 -8 2 -12 -4 -9 -6 3 -10 10 -10 16 0 14 7 11 14 -7z"/>
<path d="M1301 7683 c-7 -15 -7 -22 -1 -18 5 3 10 2 10 -3 0 -13 27 -23 45
-16 20 8 19 28 -1 45 -25 21 -41 19 -53 -8z m34 7 c-3 -5 -12 -10 -18 -10 -7
0 -6 4 3 10 19 12 23 12 15 0z m21 -22 c4 -7 3 -8 -4 -4 -7 4 -12 2 -12 -4 0
-6 -5 -8 -11 -4 -8 4 -7 9 2 15 18 11 17 11 25 -3z"/>
<path d="M4070 7700 c0 -5 5 -10 10 -10 6 0 10 5 10 10 0 6 -4 10 -10 10 -5 0
-10 -4 -10 -10z"/>
<path d="M4150 7699 c0 -5 4 -8 9 -5 20 13 18 -24 -2 -38 -22 -15 -22 -16 -3
-31 23 -18 36 -19 36 -4 0 5 -4 7 -10 4 -6 -4 -7 1 -3 12 6 16 5 17 -13 3 -17
-14 -18 -14 -6 2 11 13 19 15 39 7 28 -10 36 -7 39 16 1 8 -2 12 -8 9 -5 -4
-23 3 -39 15 -32 24 -39 26 -39 10z"/>
<path d="M10525 7670 c-2 -3 -3 -337 -3 -743 l0 -737 158 0 159 0 0 298 c-1
308 1 332 32 394 67 134 274 173 375 71 58 -58 64 -98 64 -450 l0 -313 158 0
158 0 -2 348 c-1 238 -5 366 -14 407 -36 173 -149 288 -317 326 -71 15 -204
12 -267 -7 -47 -14 -124 -53 -154 -79 l-32 -27 0 29 c-1 15 -1 132 -1 258 l0
231 -155 0 c-86 0 -157 -3 -159 -6z"/>
<path d="M4300 7660 c0 -5 5 -10 10 -10 6 0 10 5 10 10 0 6 -4 10 -10 10 -5 0
-10 -4 -10 -10z"/>
<path d="M1157 7643 c10 -3 10 -10 2 -26 -10 -18 -8 -24 17 -44 16 -13 35 -21
42 -18 6 2 12 0 12 -6 0 -6 4 -8 9 -4 5 3 13 0 17 -6 4 -8 9 -7 15 2 6 9 12
10 17 4 8 -12 37 -12 67 -1 11 4 32 12 47 18 15 6 25 15 22 20 -4 6 -9 6 -14
-2 -6 -9 -9 -9 -12 1 -2 7 -18 14 -35 15 -22 1 -30 -2 -27 -11 6 -15 35 -15
47 0 5 6 7 4 4 -5 -2 -8 -10 -14 -17 -12 -7 2 -17 -3 -21 -10 -6 -10 -9 -10
-9 -1 0 7 -7 10 -15 7 -8 -4 -15 -1 -15 6 0 6 5 8 10 5 6 -3 10 -1 10 4 0 6
-5 11 -10 11 -6 0 -5 6 2 14 9 10 17 11 26 3 9 -7 16 -7 23 0 7 7 5 14 -6 23
-12 10 -15 10 -15 0 0 -8 -3 -10 -7 -7 -3 4 -13 1 -21 -6 -14 -11 -39 -17 -91
-18 -21 -1 -22 -2 -7 -17 12 -12 19 -13 27 -5 6 6 19 9 28 6 14 -4 14 -3 1 7
-12 9 -12 11 -1 8 21 -6 21 -44 0 -44 -11 0 -15 6 -11 16 5 12 3 13 -9 4 -16
-13 -54 -12 -66 1 -5 4 -2 5 5 1 6 -4 12 -3 12 2 0 16 -13 22 -25 12 -17 -14
-27 11 -13 31 8 11 9 10 4 -4 -4 -12 -2 -17 6 -14 7 2 12 13 11 23 -1 18 -1
18 13 0 7 -11 17 -16 21 -12 10 10 -25 29 -57 32 -14 1 -19 0 -13 -3z"/>
<path d="M1475 7640 c3 -5 8 -10 11 -10 2 0 4 5 4 10 0 6 -5 10 -11 10 -5 0
-7 -4 -4 -10z"/>
<path d="M4196 7629 c3 -6 -6 -22 -22 -35 -16 -13 -23 -23 -16 -24 6 0 12 5
12 11 0 8 4 8 14 0 11 -9 15 -8 20 5 4 9 13 14 21 10 13 -5 13 -2 -1 19 -16
24 -43 37 -28 14z"/>
<path d="M5040 7608 c-161 -18 -292 -78 -394 -180 l-69 -69 24 -17 c13 -9 67
-45 119 -78 l95 -62 51 47 c74 68 137 90 249 87 125 -3 179 -33 206 -113 15
-46 7 -110 -21 -169 -29 -60 -108 -139 -585 -587 l-70 -65 0 -106 -1 -106 531
0 530 0 0 130 c0 81 -3 130 -10 131 -5 1 -135 2 -287 3 -152 1 -279 4 -283 7
-3 4 24 35 61 70 397 376 414 396 454 541 93 336 -183 584 -600 536z"/>
<path d="M5772 7460 l1 -130 139 0 138 0 0 -107 c1 -60 1 -316 1 -570 l0 -463
165 0 164 0 0 700 0 700 -305 0 -305 0 2 -130z"/>
<path d="M7294 7501 c-2 -2 -4 -62 -4 -132 l0 -127 -76 2 c-42 0 -79 -3 -83
-9 -4 -5 -7 -59 -7 -120 l1 -110 83 -3 82 -3 2 -247 c2 -271 1 -263 12 -311
34 -143 143 -238 299 -260 115 -16 228 -1 309 40 l38 19 -24 63 c-28 75 -59
151 -61 155 -1 1 -16 -5 -33 -14 -49 -24 -124 -26 -160 -3 -64 38 -66 47 -67
315 l-1 244 133 0 c73 0 133 3 134 8 1 12 1 206 0 222 -1 13 -21 15 -131 13
-117 -2 -130 -1 -131 15 -1 9 -3 64 -4 122 -1 58 -3 110 -4 115 -1 10 -297 15
-307 6z"/>
<path d="M1844 7415 c-23 -7 -52 -19 -65 -25 -33 -17 -120 -110 -113 -121 3
-5 1 -9 -3 -9 -15 0 -37 -73 -39 -133 -2 -61 21 -151 37 -141 5 3 6 -1 3 -9
-4 -13 57 -85 98 -116 19 -14 117 -51 136 -51 8 0 10 5 6 13 -6 9 -4 9 8 -1 9
-7 29 -11 45 -8 15 2 36 5 47 5 13 1 16 6 12 17 -5 13 -3 14 6 7 20 -15 54 -1
107 44 49 43 108 143 96 163 -3 6 -2 10 3 10 15 0 6 132 -12 174 -23 54 -65
108 -78 100 -6 -4 -8 -2 -5 4 9 14 -83 74 -106 68 -10 -2 -14 0 -10 7 4 6 0 8
-10 4 -10 -3 -17 -3 -17 2 0 13 -102 10 -146 -4z m-24 -71 c0 -8 -19 -13 -24
-6 -3 5 1 9 9 9 8 0 15 -2 15 -3z m230 2 c0 -3 -4 -8 -10 -11 -5 -3 -10 -1
-10 4 0 6 5 11 10 11 6 0 10 -2 10 -4z m-240 -86 c0 -5 -5 -10 -11 -10 -5 0
-7 5 -4 10 3 6 8 10 11 10 2 0 4 -4 4 -10z m234 2 c3 -5 -1 -9 -9 -9 -8 0 -12
4 -9 9 3 4 7 8 9 8 2 0 6 -4 9 -8z m-197 -117 c0 -8 -4 -12 -9 -9 -5 3 -6 10
-3 15 9 13 12 11 12 -6z m-77 -1 c0 -8 -19 -13 -24 -6 -3 5 1 9 9 9 8 0 15 -2
15 -3z m0 -84 c0 -5 -5 -10 -11 -10 -5 0 -7 5 -4 10 3 6 8 10 11 10 2 0 4 -4
4 -10z m195 -40 c3 -5 1 -10 -4 -10 -6 0 -11 5 -11 10 0 6 2 10 4 10 3 0 8 -4
11 -10z m-201 -38 c3 -5 -1 -9 -9 -9 -8 0 -12 4 -9 9 3 4 7 8 9 8 2 0 6 -4 9
-8z m206 -122 c0 -5 -5 -10 -11 -10 -5 0 -7 5 -4 10 3 6 8 10 11 10 2 0 4 -4
4 -10z"/>
<path d="M3406 7415 c-98 -25 -195 -124 -214 -218 -28 -142 19 -258 137 -337
13 -8 27 -14 32 -12 5 1 9 -2 9 -7 0 -12 54 -24 123 -27 39 -2 55 1 51 8 -4 6
-2 8 3 5 15 -9 103 23 110 39 3 8 9 12 13 9 10 -6 86 83 82 96 -1 5 1 9 6 9
16 0 35 65 37 127 3 72 -3 106 -16 97 -5 -3 -6 2 -3 10 7 18 -40 102 -55 99
-6 -2 -10 2 -8 8 3 14 -81 81 -93 74 -5 -3 -10 -1 -12 5 -2 6 -13 12 -26 15
-12 2 -27 7 -32 10 -6 3 -10 0 -10 -7 0 -10 -2 -10 -8 -1 -10 15 -62 14 -126
-2z m84 -69 c0 -3 -4 -8 -10 -11 -5 -3 -10 -1 -10 4 0 6 5 11 10 11 6 0 10 -2
10 -4z m-160 -80 c0 -3 -4 -8 -10 -11 -5 -3 -10 -1 -10 4 0 6 5 11 10 11 6 0
10 -2 10 -4z m400 -6 c0 -5 -2 -10 -4 -10 -3 0 -8 5 -11 10 -3 6 -1 10 4 10 6
0 11 -4 11 -10z m-480 -76 c0 -8 -19 -13 -24 -6 -3 5 1 9 9 9 8 0 15 -2 15 -3z
m280 -44 c0 -5 -4 -10 -10 -10 -5 0 -10 5 -10 10 0 6 5 10 10 10 6 0 10 -4 10
-10z m-280 -40 c0 -5 -2 -10 -4 -10 -3 0 -8 5 -11 10 -3 6 -1 10 4 10 6 0 11
-4 11 -10z m240 -76 c0 -8 -19 -13 -24 -6 -3 5 1 9 9 9 8 0 15 -2 15 -3z m-5
-84 c3 -5 1 -10 -4 -10 -6 0 -11 5 -11 10 0 6 2 10 4 10 3 0 8 -4 11 -10z m85
0 c0 -5 -5 -10 -11 -10 -5 0 -7 5 -4 10 3 6 8 10 11 10 2 0 4 -4 4 -10z m-80
-80 c0 -5 -2 -10 -4 -10 -3 0 -8 5 -11 10 -3 6 -1 10 4 10 6 0 11 -4 11 -10z"/>
<path d="M8520 7279 c-312 -28 -523 -262 -514 -570 6 -209 113 -376 299 -467
95 -47 185 -65 315 -65 126 0 210 16 296 58 53 26 147 102 142 115 -2 4 -38
46 -81 93 l-79 86 -56 -38 c-71 -47 -123 -62 -215 -62 -155 0 -265 69 -301
188 l-7 23 408 2 408 3 -1 85 c-1 129 -20 206 -78 304 -55 94 -184 190 -301
224 -63 19 -164 28 -235 21z m206 -276 c46 -29 99 -102 109 -149 l6 -31 -260
0 c-243 0 -261 2 -261 18 0 25 20 68 49 107 72 98 246 124 357 55z"/>
<path d="M9800 7279 c-160 -16 -281 -69 -380 -169 -79 -79 -126 -168 -144
-271 -57 -324 134 -596 459 -653 148 -26 302 -5 415 55 65 35 146 111 178 167
l21 38 -122 67 -122 67 -15 -23 c-30 -45 -92 -96 -135 -110 -62 -22 -162 -16
-216 12 -100 51 -150 135 -154 255 -6 176 101 303 260 307 96 3 141 -14 207
-82 l58 -59 77 41 c43 23 97 52 120 64 l41 22 -25 44 c-90 160 -296 249 -523
228z"/>
<path d="M2589 6815 c-199 -52 -348 -245 -349 -450 0 -261 208 -472 468 -473
413 -1 624 483 343 790 -55 60 -153 117 -235 137 -58 14 -163 12 -227 -4z"/>
<path d="M1545 6663 c-37 -8 -105 -43 -105 -54 0 -5 -4 -8 -9 -5 -13 9 -80
-69 -103 -121 -30 -69 -30 -180 2 -251 15 -34 28 -51 36 -48 7 3 16 0 20 -6 4
-7 3 -8 -4 -4 -23 14 -12 -10 16 -36 38 -36 77 -59 85 -51 4 3 7 2 7 -4 0 -12
32 -21 99 -29 47 -6 141 12 141 28 0 5 4 7 8 4 14 -8 83 44 76 56 -4 6 -3 8 3
5 6 -4 18 2 28 13 10 11 14 20 10 20 -5 0 -1 6 8 13 26 19 54 106 52 162 -4
89 -5 96 -15 90 -6 -3 -7 1 -4 10 4 8 1 21 -5 29 -6 7 -8 16 -4 19 3 4 1 7 -5
7 -7 0 -12 7 -12 16 0 10 -6 14 -14 11 -10 -4 -13 -1 -10 7 5 13 -75 90 -84
81 -2 -2 -11 2 -19 10 -8 8 -23 15 -33 15 -10 0 -21 4 -24 8 -8 14 -89 14 -97
0 -7 -10 -9 -10 -9 0 0 12 -2 13 -35 5z m25 -37 c0 -3 -4 -8 -10 -11 -5 -3
-10 -1 -10 4 0 6 5 11 10 11 6 0 10 -2 10 -4z m-5 -86 c3 -5 1 -10 -4 -10 -6
0 -11 5 -11 10 0 6 2 10 4 10 3 0 8 -4 11 -10z m-85 -116 c0 -8 -19 -13 -24
-6 -3 5 1 9 9 9 8 0 15 -2 15 -3z m127 -59 c0 -8 -4 -12 -9 -9 -5 3 -6 10 -3
15 9 13 12 11 12 -6z m123 -65 c0 -5 -2 -10 -4 -10 -3 0 -8 5 -11 10 -3 6 -1
10 4 10 6 0 11 -4 11 -10z m40 -114 c0 -3 -4 -8 -10 -11 -5 -3 -10 -1 -10 4 0
6 5 11 10 11 6 0 10 -2 10 -4z m-203 -41 c0 -8 -4 -12 -9 -9 -5 3 -6 10 -3 15
9 13 12 11 12 -6z m-77 1 c0 -3 -4 -8 -10 -11 -5 -3 -10 -1 -10 4 0 6 5 11 10
11 6 0 10 -2 10 -4z"/>
<path d="M680 6582 c0 -8 -6 -12 -12 -9 -17 5 -88 -30 -88 -44 0 -6 -4 -7 -10
-4 -6 3 -7 -1 -4 -10 5 -12 10 -13 20 -4 7 6 19 7 26 3 17 -11 40 -11 55 -1 7
5 16 6 22 3 5 -3 12 1 15 10 3 9 12 14 19 11 10 -4 14 4 14 24 0 16 -4 29 -9
29 -4 0 -8 -4 -8 -10 0 -20 -3 -25 -21 -38 -22 -15 -68 -21 -94 -12 -17 6 -17
7 -2 13 10 4 17 2 17 -4 0 -6 9 -1 21 12 11 13 18 18 14 11 -11 -21 26 -27 41
-7 8 10 14 24 13 29 0 6 -3 5 -6 -3 -5 -11 -7 -11 -14 0 -7 11 -9 12 -9 1z"/>
<path d="M749 6585 c-9 -61 1 -116 14 -81 4 9 2 16 -4 16 -6 0 -7 5 -3 11 10
16 24 -10 16 -30 -5 -14 -4 -14 11 -2 13 10 14 17 6 27 -12 15 -3 38 12 29 5
-4 9 -1 9 4 0 10 -14 13 -36 10 -4 0 -11 5 -15 13 -5 7 -9 9 -10 3z m25 -27
c-3 -4 -9 -8 -15 -8 -5 0 -9 4 -9 8 0 5 7 9 15 9 8 0 12 -4 9 -9z"/>
<path d="M815 6551 c-3 -5 -1 -12 5 -16 5 -3 10 1 10 9 0 18 -6 21 -15 7z"/>
<path d="M790 6544 c0 -5 5 -15 10 -20 8 -8 6 -15 -5 -24 -22 -19 -18 -27 13
-26 23 1 27 -3 24 -23 -2 -19 0 -21 12 -12 7 6 22 8 32 4 17 -6 17 -5 5 10 -8
10 -16 15 -19 12 -3 -3 -14 7 -24 22 -10 16 -18 22 -18 16 0 -7 -5 -13 -11
-13 -8 0 -7 5 1 16 11 12 10 18 -3 32 -10 9 -17 12 -17 6z"/>
<path d="M849 6536 c9 -11 9 -16 0 -22 -8 -4 -9 -3 -5 4 4 7 2 12 -3 12 -21 0
-11 -22 24 -53 41 -36 45 -52 10 -43 -29 7 -57 -27 -29 -38 12 -4 14 -1 9 14
-4 12 -2 20 5 20 6 0 8 -5 4 -12 -4 -7 -3 -8 4 -4 7 4 16 5 22 1 14 -8 0 -37
-16 -31 -9 3 -11 -3 -9 -22 2 -15 4 -30 4 -34 1 -5 6 -8 11 -8 6 0 8 11 6 24
-3 18 -1 23 9 20 8 -3 12 1 12 12 -1 9 4 18 11 20 7 1 8 0 2 -3 -5 -2 -10 -9
-10 -14 0 -6 6 -7 13 -3 9 6 9 5 0 -7 -7 -9 -11 -25 -8 -37 3 -16 0 -19 -13
-15 -14 5 -15 3 -4 -8 18 -19 33 1 37 47 3 44 -3 66 -15 59 -5 -3 -12 0 -16 6
-4 7 -3 9 4 5 6 -3 13 -2 17 4 3 5 2 10 -4 10 -6 0 -8 6 -5 14 3 8 -4 20 -15
28 -12 8 -18 18 -14 21 3 4 1 7 -5 7 -6 0 -14 9 -17 20 -3 11 -11 20 -17 20
-7 0 -6 -5 1 -14z m25 -42 c3 -8 2 -12 -4 -9 -6 3 -10 10 -10 16 0 14 7 11 14
-7z m34 -39 c-3 -3 -9 2 -12 12 -6 14 -5 15 5 6 7 -7 10 -15 7 -18z"/>
<path d="M708 6518 c-3 -7 -12 -13 -21 -13 -20 0 -24 -18 -6 -24 6 -2 9 1 6 6
-3 5 0 10 7 10 9 0 12 -7 8 -16 -5 -13 -3 -14 9 -4 10 8 19 9 29 1 12 -8 12
-9 -2 -4 -10 3 -20 1 -23 -4 -6 -9 7 -13 21 -7 6 2 28 -33 29 -47 0 -5 6 -11
13 -14 7 -2 10 2 6 12 -4 10 0 14 15 13 13 -1 17 -5 11 -12 -5 -6 -5 -17 0
-25 5 -8 6 -18 3 -23 -3 -5 4 -6 15 -3 17 6 21 3 19 -13 -1 -15 -4 -17 -14 -9
-8 6 -16 9 -18 6 -8 -8 23 -30 33 -24 8 5 9 23 3 59 0 5 -5 6 -10 3 -12 -8
-18 12 -15 53 1 24 -1 30 -7 19 -10 -18 -51 -17 -57 3 -3 11 -1 11 7 -1 6 -8
11 -10 11 -5 0 13 -16 37 -24 36 -20 -3 -26 0 -21 9 3 6 1 10 -5 10 -6 0 -8 5
-5 10 3 6 2 10 -4 10 -5 0 -11 -6 -13 -12z"/>
<path d="M532 6468 c-12 -24 -23 -56 -24 -73 -3 -26 0 -30 25 -30 33 -1 44 10
21 19 -9 4 -23 1 -30 -5 -10 -8 -14 -8 -14 0 0 6 5 11 11 11 5 0 7 4 4 10 -3
5 0 7 8 4 17 -6 18 26 2 38 -6 5 -5 8 3 8 7 0 10 4 7 10 -3 5 0 7 9 4 9 -3 19
3 26 16 11 21 12 21 31 4 13 -12 19 -13 19 -4 0 10 3 10 15 0 8 -7 12 -17 9
-22 -4 -6 3 -8 17 -3 14 4 19 3 12 -2 -9 -6 -7 -12 9 -22 18 -11 20 -11 15 3
-6 14 -3 15 14 5 11 -6 18 -17 15 -24 -3 -8 3 -17 15 -20 16 -5 18 -10 8 -21
-14 -17 2 -19 21 -1 11 9 11 8 0 -7 -14 -18 -13 -19 4 -13 15 6 17 5 7 -6 -9
-11 -4 -18 24 -33 19 -10 37 -15 41 -11 4 3 16 2 28 -4 20 -10 20 -10 2 5 -11
9 -27 14 -36 11 -20 -6 -49 24 -45 48 2 9 -1 17 -6 17 -6 0 -7 4 -4 10 3 5 0
7 -8 4 -14 -5 -32 11 -32 30 0 4 -20 19 -45 32 -25 12 -51 28 -58 35 -7 6 -16
8 -19 5 -3 -3 -12 -1 -20 5 -9 8 -17 8 -26 0 -9 -7 -17 -7 -24 0 -6 6 -17 -5
-31 -33z"/>
<path d="M573 6464 c-12 -13 -17 -24 -10 -27 6 -2 11 -13 12 -24 1 -15 -3 -19
-14 -15 -24 8 -10 -3 31 -26 36 -20 37 -21 35 -1 -1 14 -6 18 -22 13 -16 -4
-17 -3 -5 5 8 6 10 11 4 11 -7 0 -14 11 -16 24 -6 28 6 54 16 38 3 -6 0 -13
-6 -15 -10 -4 -10 -6 -1 -6 8 -1 10 -8 6 -18 -6 -16 -5 -17 11 -3 10 8 13 16
8 18 -6 2 -9 9 -6 16 10 26 -20 33 -43 10z"/>
<path d="M630 6455 c0 -8 6 -15 12 -15 7 0 2 -7 -11 -16 -21 -15 -22 -18 -7
-26 9 -5 15 -12 12 -16 -2 -4 7 -18 20 -32 13 -13 24 -20 24 -14 0 7 -7 17
-15 24 -8 7 -15 18 -15 25 0 8 -5 15 -10 17 -6 2 0 9 12 17 21 13 22 13 9 -2
-8 -11 -9 -17 -3 -17 6 0 9 -6 6 -13 -3 -8 2 -20 11 -27 18 -15 21 0 3 18 -9
9 -9 12 3 12 11 0 12 2 0 9 -9 6 -10 11 -2 15 11 7 15 -6 11 -33 -1 -13 1 -13
15 -1 11 9 19 10 26 3 8 -8 6 -11 -6 -10 -10 1 -20 -4 -22 -11 -3 -7 1 -10 11
-6 10 4 18 0 22 -10 3 -9 10 -14 14 -11 5 3 12 0 16 -6 5 -8 3 -9 -6 -4 -9 6
-10 1 -5 -16 4 -14 3 -19 -2 -12 -6 9 -12 7 -21 -7 -10 -16 -9 -18 9 -17 37 3
49 77 12 77 -9 0 -12 6 -9 18 4 13 -9 26 -49 51 -30 18 -52 37 -49 42 3 5 0 9
-5 9 -6 0 -11 -7 -11 -15z"/>
<path d="M550 6419 c0 -5 5 -7 10 -4 6 3 10 8 10 11 0 2 -4 4 -10 4 -5 0 -10
-5 -10 -11z"/>
<path d="M715 6420 c-3 -5 -1 -10 4 -10 6 0 11 5 11 10 0 6 -2 10 -4 10 -3 0
-8 -4 -11 -10z"/>
<path d="M870 6399 c0 -5 5 -7 10 -4 6 3 10 8 10 11 0 2 -4 4 -10 4 -5 0 -10
-5 -10 -11z"/>
<path d="M566 6363 c-7 -8 -11 -8 -50 -11 -16 -2 -17 -5 -8 -14 10 -10 15 -10
22 2 8 12 11 13 19 1 6 -9 11 -10 15 -2 4 6 12 9 17 6 5 -3 6 1 3 9 -7 18 -8
19 -18 9z"/>
<path d="M593 6348 c1 -7 -4 -13 -10 -14 -7 -1 -16 -3 -20 -4 -12 -4 -27 -7
-40 -8 -14 -2 -12 -18 11 -60 10 -19 23 -31 30 -29 18 7 42 -8 27 -17 -6 -4
-11 -2 -11 4 0 6 -5 8 -11 4 -11 -6 14 -28 34 -29 4 0 11 -6 16 -13 12 -20 53
-23 79 -6 18 12 21 18 12 29 -7 8 -9 18 -6 24 3 5 -1 12 -10 15 -12 5 -14 1
-9 -17 11 -35 11 -42 -2 -39 -7 1 -13 -3 -13 -9 0 -6 -7 -3 -16 5 -8 9 -19 14
-24 11 -11 -7 -21 22 -13 42 4 9 2 14 -3 10 -6 -3 -16 -2 -24 3 -9 5 -20 4
-29 -3 -10 -8 -13 -8 -8 -1 4 7 0 17 -8 24 -17 14 -20 36 -5 45 6 4 7 -1 4
-12 -4 -13 0 -11 17 7 16 18 20 20 16 7 -6 -15 -3 -17 16 -11 12 4 30 7 40 6
16 -1 17 1 5 16 -12 14 -10 14 12 -1 35 -24 48 -21 16 4 -25 20 -28 20 -45 5
-10 -9 -22 -16 -27 -16 -5 0 -1 5 9 11 9 6 15 14 12 20 -9 13 -25 11 -22 -3z"/>
<path d="M692 6330 c3 -22 -1 -25 -42 -27 -78 -5 -95 -9 -95 -23 0 -7 7 -14
15 -16 8 -2 24 -5 35 -7 13 -3 19 -11 18 -25 -1 -11 4 -23 12 -26 23 -9 28 14
8 37 l-18 22 23 -19 c13 -12 20 -26 17 -36 -3 -10 0 -17 9 -17 11 0 12 6 5 24
-6 16 -5 31 1 44 6 10 8 19 4 19 -3 0 3 8 15 18 20 16 21 18 6 37 -15 20 -16
20 -13 -5z m-26 -59 c1 -21 0 -21 -17 -5 -11 10 -19 13 -19 7 0 -5 -7 -10 -15
-10 -8 0 -11 5 -8 10 4 6 -1 8 -11 4 -10 -4 -15 -3 -11 4 4 5 16 7 27 3 12 -3
18 -2 15 3 -3 5 4 9 16 8 15 -1 22 -9 23 -24z"/>
<path d="M719 6332 c7 -12 4 -24 -10 -41 -25 -30 -24 -36 6 -49 14 -6 25 -8
25 -3 0 5 8 8 18 7 10 0 16 5 14 14 -2 13 -1 13 10 0 18 -21 49 -25 42 -5 -4
9 -9 13 -12 11 -3 -3 -12 0 -20 6 -11 10 -17 9 -27 -5 -10 -14 -14 -15 -18 -5
-4 10 -6 10 -6 -1 -1 -11 -4 -11 -16 -1 -12 10 -12 15 1 35 14 22 10 55 -7 55
-6 0 -6 -7 0 -18z"/>
<path d="M784 6309 c-3 -6 1 -18 10 -27 9 -9 16 -11 16 -5 0 6 -6 14 -12 16
-10 4 -10 6 0 6 7 1 17 -10 24 -24 6 -13 15 -22 21 -18 5 3 3 9 -4 15 -11 8
-11 9 1 6 13 -4 15 -18 11 -59 0 -5 -6 -7 -12 -3 -8 5 -8 9 1 14 7 4 -11 6
-41 3 -30 -2 -62 -4 -71 -4 -21 0 -23 -10 -6 -27 8 -8 5 -16 -13 -31 l-24 -20
35 4 c19 2 38 4 41 4 9 1 7 31 -3 31 -4 0 -8 -4 -8 -10 0 -5 -6 -10 -12 -10
-7 1 -3 9 10 19 15 14 18 21 10 25 -7 3 -2 3 11 0 17 -5 21 -3 16 6 -6 10 -4
11 6 4 8 -5 18 -9 23 -9 5 0 11 -7 13 -15 4 -13 3 -13 -6 0 -8 11 -11 12 -11
2 0 -9 -7 -11 -19 -7 -14 4 -19 1 -17 -9 3 -20 16 -33 16 -17 0 7 5 9 10 6 6
-3 10 -1 10 5 0 6 4 8 10 5 11 -7 86 63 83 76 -2 5 1 9 7 9 6 0 10 4 10 9 0 9
-6 10 -62 11 -13 1 -33 7 -45 15 -15 10 -24 11 -29 4z m108 -54 c0 -5 -5 -11
-11 -13 -6 -2 -11 4 -11 13 0 9 5 15 11 13 6 -2 11 -8 11 -13z"/>
<path d="M4580 6020 c0 -7 1200 -10 3580 -10 2380 0 3580 3 3580 10 0 7 -1200
10 -3580 10 -2380 0 -3580 -3 -3580 -10z"/>
<path d="M6446 5892 c-2 -4 -4 -105 -4 -225 1 -194 2 -218 17 -215 14 3 16 30
16 220 0 164 -3 219 -12 222 -7 3 -14 2 -17 -2z"/>
<path d="M1836 5874 c-15 -5 -23 -14 -19 -18 4 -4 0 -4 -8 -1 -36 14 -154
-109 -174 -180 -18 -65 -14 -148 10 -206 25 -62 63 -112 78 -102 6 3 7 1 4 -4
-9 -14 29 -47 44 -37 7 4 10 3 6 -3 -8 -13 20 -26 35 -16 7 3 8 1 4 -5 -7 -11
7 -16 42 -15 6 1 12 -2 12 -6 0 -11 107 -13 114 -2 3 5 15 7 26 4 12 -3 22 1
26 11 3 9 10 13 15 10 5 -3 24 4 42 15 35 22 96 81 82 81 -4 0 1 8 12 18 16
14 30 45 37 82 1 3 4 10 7 15 10 16 8 115 -3 115 -5 0 -7 4 -3 10 9 15 -6 61
-18 53 -5 -3 -7 -1 -4 4 9 14 -10 49 -48 92 -58 65 -180 116 -213 89 -12 -10
-14 -10 -8 0 9 15 -58 13 -98 -4z m54 -10 c0 -8 -19 -13 -24 -6 -3 5 1 9 9 9
8 0 15 -2 15 -3z m-76 -122 c3 -5 -1 -9 -9 -9 -8 0 -12 4 -9 9 3 4 7 8 9 8 2
0 6 -4 9 -8z m76 -2 c0 -5 -2 -10 -4 -10 -3 0 -8 5 -11 10 -3 6 -1 10 4 10 6
0 11 -4 11 -10z m240 6 c0 -3 -4 -8 -10 -11 -5 -3 -10 -1 -10 4 0 6 5 11 10
11 6 0 10 -2 10 -4z m-460 -80 c0 -2 -7 -7 -16 -10 -8 -3 -12 -2 -9 4 6 10 25
14 25 6z m60 -2 c0 -8 -19 -13 -24 -6 -3 5 1 9 9 9 8 0 15 -2 15 -3z m493 -79
c-3 -9 -8 -14 -10 -11 -3 3 -2 9 2 15 9 16 15 13 8 -4z m-538 -53 c-3 -3 -11
0 -18 7 -9 10 -8 11 6 5 10 -3 15 -9 12 -12z m79 2 c3 -8 2 -12 -4 -9 -6 3
-10 10 -10 16 0 14 7 11 14 -7z m296 -30 c0 -8 -19 -13 -24 -6 -3 5 1 9 9 9 8
0 15 -2 15 -3z m70 2 c0 -3 -4 -8 -10 -11 -5 -3 -10 -1 -10 4 0 6 5 11 10 11
6 0 10 -2 10 -4z m-320 -80 c0 -3 -4 -8 -10 -11 -5 -3 -10 -1 -10 4 0 6 5 11
10 11 6 0 10 -2 10 -4z m80 -86 c0 -5 -2 -10 -4 -10 -3 0 -8 5 -11 10 -3 6 -1
10 4 10 6 0 11 -4 11 -10z"/>
<path d="M3380 5867 c-75 -28 -195 -155 -176 -186 4 -5 1 -11 -6 -13 -18 -6
-17 -160 1 -182 7 -9 11 -16 7 -16 -14 0 29 -67 69 -107 42 -43 127 -89 145
-78 6 3 10 2 10 -3 0 -20 173 -1 186 19 3 5 10 7 15 4 5 -4 9 -2 9 4 0 5 8 12
18 15 47 15 144 158 127 186 -3 6 -2 10 2 10 5 0 9 15 10 33 4 48 -7 118 -17
112 -4 -3 -6 3 -3 13 6 24 -54 109 -105 148 -43 34 -138 72 -125 51 5 -8 2 -8
-9 1 -22 17 -96 12 -158 -11z m107 -122 c0 -8 -4 -12 -9 -9 -5 3 -6 10 -3 15
9 13 12 11 12 -6z m-77 -5 c0 -5 -5 -10 -11 -10 -5 0 -7 5 -4 10 3 6 8 10 11
10 2 0 4 -4 4 -10z m-80 -154 c0 -3 -4 -8 -10 -11 -5 -3 -10 -1 -10 4 0 6 5
11 10 11 6 0 10 -2 10 -4z m160 0 c0 -3 -4 -8 -10 -11 -5 -3 -10 -1 -10 4 0 6
5 11 10 11 6 0 10 -2 10 -4z m204 -44 c3 -5 -1 -9 -9 -9 -8 0 -12 4 -9 9 3 4
7 8 9 8 2 0 6 -4 9 -8z m-370 -40 c3 -5 -1 -9 -9 -9 -8 0 -12 4 -9 9 3 4 7 8
9 8 2 0 6 -4 9 -8z m106 -38 c0 -8 -19 -13 -24 -6 -3 5 1 9 9 9 8 0 15 -2 15
-3z m-90 -40 c0 -8 -19 -13 -24 -6 -3 5 1 9 9 9 8 0 15 -2 15 -3z"/>
<path d="M5132 5877 c-15 -17 1 -42 23 -33 18 6 17 37 -1 43 -6 2 -16 -2 -22
-10z"/>
<path d="M5702 5877 c-15 -17 1 -42 23 -33 18 6 17 37 -1 43 -6 2 -16 -2 -22
-10z"/>
<path d="M4650 5661 l0 -212 114 2 c86 1 124 6 155 20 159 71 165 292 10 375
-26 14 -63 19 -156 22 l-123 4 0 -211z m248 164 c75 -32 115 -95 110 -175 -3
-56 -20 -91 -59 -124 -42 -36 -92 -48 -184 -44 l-80 3 0 178 0 177 88 0 c56 0
101 -5 125 -15z"/>
<path d="M5858 5798 c-2 -27 -7 -33 -27 -33 -25 0 -43 -24 -19 -26 7 -1 20 -2
28 -3 12 -1 16 -24 20 -124 5 -115 7 -125 29 -143 28 -23 93 -25 111 -4 12 14
6 20 -15 15 -30 -7 -71 1 -82 16 -9 12 -13 55 -13 130 l0 112 50 -2 c40 -1 50
2 48 14 -2 11 -16 15 -48 15 -43 0 -45 1 -48 33 -2 19 -9 32 -17 32 -8 0 -15
-13 -17 -32z"/>
<path d="M5130 5610 c0 -147 1 -160 18 -160 16 0 18 13 17 153 0 141 -4 166
-27 167 -5 0 -8 -72 -8 -160z"/>
<path d="M5379 5761 c-70 -14 -119 -75 -119 -147 0 -115 129 -190 229 -133 23
12 41 27 41 31 0 5 4 7 9 4 5 -4 8 -14 6 -24 -2 -9 -4 -30 -4 -45 -2 -74 -105
-108 -197 -68 -51 23 -74 19 -49 -9 18 -20 86 -40 134 -40 50 0 105 28 126 63
17 28 20 55 22 200 2 157 2 167 -16 167 -15 0 -18 -7 -16 -31 l3 -31 -27 25
c-41 38 -82 49 -142 38z m107 -42 c31 -16 57 -67 56 -111 -4 -96 -107 -149
-190 -98 -68 42 -78 137 -21 191 42 39 98 45 155 18z"/>
<path d="M5713 5763 c-10 -4 -13 -45 -13 -160 0 -140 2 -154 17 -151 15 3 17
20 18 156 0 85 -2 155 -5 156 -3 2 -11 1 -17 -1z"/>
<path d="M6115 5746 c-33 -15 -42 -25 -36 -35 7 -11 13 -10 35 4 14 9 47 19
72 20 41 3 51 0 76 -26 21 -20 28 -37 26 -56 -3 -26 -4 -26 -86 -29 -71 -1
-87 -5 -107 -24 -43 -40 -35 -109 16 -135 53 -28 157 -11 172 27 3 7 6 1 6
-14 1 -18 6 -28 16 -28 12 0 15 19 15 110 0 119 -13 170 -48 189 -39 21 -109
19 -157 -3z m175 -176 c0 -18 -11 -42 -28 -61 -24 -27 -35 -32 -75 -32 -56 0
-87 23 -87 64 0 43 32 59 117 59 l73 0 0 -30z"/>
<path d="M6825 5757 c-89 -29 -131 -134 -89 -224 43 -89 170 -112 247 -45 28
25 -1 33 -37 11 -35 -21 -93 -25 -129 -8 -14 6 -34 29 -47 50 -68 123 70 252
181 170 28 -21 44 -15 33 12 -12 31 -106 52 -159 34z"/>
<path d="M7155 5757 c-97 -31 -136 -161 -75 -247 61 -86 203 -79 261 12 26 43
23 140 -6 180 -40 53 -115 76 -180 55z m115 -37 c30 -16 60 -70 60 -108 0
-103 -103 -167 -188 -117 -37 23 -52 47 -58 98 -12 103 95 176 186 127z"/>
<path d="M7457 5764 c-4 -4 -7 -77 -7 -161 0 -139 2 -154 17 -151 14 3 17 18
19 107 2 128 20 159 96 176 18 3 25 10 22 19 -8 22 -75 2 -103 -31 -22 -25
-24 -26 -19 -6 6 24 -13 59 -25 47z"/>
<path d="M7693 5762 c-14 -9 -15 -419 -1 -429 18 -10 24 14 23 96 l-1 80 29
-25 c16 -13 40 -27 53 -30 39 -10 109 1 137 22 84 61 79 211 -8 264 -53 33
-131 30 -173 -5 -38 -32 -40 -31 -44 5 -2 19 -7 27 -15 22z m222 -55 c39 -31
55 -76 44 -125 -16 -71 -54 -102 -128 -102 -70 0 -123 66 -114 139 14 106 118
152 198 88z"/>
<path d="M2643 5582 c-13 -2 -23 -8 -23 -13 0 -6 -4 -8 -9 -5 -13 9 -69 -23
-117 -67 -53 -48 -84 -120 -88 -202 -4 -69 21 -161 48 -180 9 -7 13 -14 10
-17 -7 -7 72 -75 111 -94 46 -24 64 -27 140 -28 68 0 139 22 157 48 4 6 8 8 8
4 0 -4 20 11 44 33 74 68 110 196 84 302 -11 44 -58 118 -70 111 -6 -4 -8 -3
-5 3 13 21 -121 110 -149 99 -8 -3 -14 -2 -14 3 0 8 -84 10 -127 3z m-79 -80
c3 -5 -1 -9 -9 -9 -8 0 -12 4 -9 9 3 4 7 8 9 8 2 0 6 -4 9 -8z m2 -68 c1 -9 0
-13 -4 -10 -3 4 -7 14 -8 22 -1 9 0 13 4 10 3 -4 7 -14 8 -22z m364 -14 c0 -5
-2 -10 -4 -10 -3 0 -8 5 -11 10 -3 6 -1 10 4 10 6 0 11 -4 11 -10z m-325 -79
c3 -5 2 -12 -3 -15 -5 -3 -9 1 -9 9 0 17 3 19 12 6z m85 5 c0 -3 -4 -8 -10
-11 -5 -3 -10 -1 -10 4 0 6 5 11 10 11 6 0 10 -2 10 -4z m80 -166 c0 -5 -5
-10 -11 -10 -5 0 -7 5 -4 10 3 6 8 10 11 10 2 0 4 -4 4 -10z m-3 -75 c0 -8 -4
-12 -9 -9 -5 3 -6 10 -3 15 9 13 12 11 12 -6z"/>
<path d="M8063 5489 c-15 -15 -5 -39 17 -39 22 0 32 24 17 39 -6 6 -14 11 -17
11 -3 0 -11 -5 -17 -11z"/>
<path d="M1240 5178 c-22 -8 -22 -9 -5 -28 10 -11 23 -20 29 -20 6 1 0 10 -14
22 -16 14 -19 19 -7 15 18 -7 47 1 47 12 0 10 -22 10 -50 -1z"/>
<path d="M1296 5173 c-9 -23 -7 -24 15 -11 17 11 22 10 30 -5 8 -13 14 -15 29
-7 13 7 24 5 41 -9 l23 -18 -22 -7 c-12 -4 -22 -12 -22 -17 0 -14 11 -11 32 8
15 13 21 14 31 4 9 -10 8 -16 -8 -27 -19 -15 -19 -16 5 -12 19 2 25 -1 24 -14
-2 -18 7 -23 19 -12 7 8 -34 84 -46 84 -4 0 -18 9 -30 20 -12 11 -27 18 -34
16 -7 -3 -13 -1 -13 4 0 6 -5 10 -11 10 -5 0 -7 -6 -4 -12 4 -7 1 -6 -7 2 -17
20 -45 21 -52 3z"/>
<path d="M4079 5179 c-7 -4 -16 -6 -20 -3 -4 2 -10 0 -14 -6 -4 -6 -11 -8 -16
-5 -5 4 -9 1 -9 -4 0 -6 -8 -11 -17 -11 -16 0 -16 -2 -3 -11 12 -9 11 -10 -7
-6 -14 3 -21 0 -20 -7 1 -6 -4 -10 -10 -8 -7 1 -13 -4 -13 -12 0 -8 -7 -22
-16 -31 -9 -8 -14 -22 -11 -30 3 -7 2 -16 -4 -19 -5 -2 -4 -3 3 -2 7 2 13 11
13 22 0 10 6 20 13 20 25 3 27 4 13 13 -9 6 -10 11 -2 15 10 7 16 -6 12 -28
-1 -5 5 -6 14 -2 9 3 19 6 23 6 3 0 -3 6 -14 14 -14 11 -16 17 -7 26 14 15 36
3 29 -15 -2 -7 2 -16 10 -19 11 -4 14 -1 9 13 -12 37 -14 61 -5 56 5 -3 14 3
20 12 10 17 10 17 8 -1 -2 -10 2 -21 9 -23 7 -3 11 3 8 15 -4 21 21 26 44 8
12 -9 14 -8 9 5 -4 9 -1 16 7 16 7 0 11 -6 8 -13 -5 -14 30 -37 41 -27 4 4 -4
12 -16 19 -23 12 -23 12 4 11 21 -2 25 -6 22 -24 -3 -13 0 -23 6 -23 9 0 14
14 11 33 -1 5 3 6 9 2 6 -3 7 -11 4 -17 -5 -7 -2 -8 6 -3 9 6 11 4 5 -5 -6
-10 -4 -12 11 -6 10 4 15 4 12 0 -4 -3 0 -13 8 -21 11 -11 12 -19 4 -28 -6 -8
-7 -16 -2 -19 5 -3 14 6 20 19 8 17 8 25 1 25 -6 0 -7 5 -3 12 4 7 3 8 -4 4
-7 -4 -12 -3 -12 3 0 15 -57 52 -88 57 -62 10 -90 11 -103 3z"/>
<path d="M1200 5160 c0 -6 -4 -9 -9 -6 -9 6 -62 -48 -80 -82 -9 -18 -8 -23 10
-33 17 -9 20 -8 16 3 -2 7 -10 12 -17 10 -14 -3 -12 0 37 61 13 16 23 25 23
22 0 -4 8 -1 18 6 16 13 16 13 2 -5 -14 -17 -13 -18 7 -12 15 5 28 1 42 -13
20 -20 26 -19 21 4 -1 6 4 4 12 -3 11 -11 10 -14 -1 -21 -17 -11 -43 -3 -35
10 3 5 1 9 -4 9 -6 0 -13 -7 -16 -16 -8 -21 -8 -26 2 -20 4 2 14 1 22 -4 8 -5
21 -5 30 0 19 10 45 -3 36 -18 -4 -7 4 -9 21 -7 16 2 31 4 36 4 4 1 7 5 7 10
0 4 -11 7 -24 6 -17 -2 -23 1 -20 10 3 8 -2 12 -13 12 -10 -1 -18 5 -18 13 0
19 -16 31 -35 25 -9 -3 -28 7 -43 20 -15 14 -27 21 -27 15z"/>
<path d="M1270 5154 c0 -6 16 -18 35 -27 20 -10 35 -12 35 -6 0 5 5 7 10 4 6
-4 17 -1 25 5 10 9 15 9 15 1 0 -6 -11 -13 -25 -17 -14 -3 -25 -11 -25 -16 0
-6 7 -8 15 -4 16 6 40 -28 30 -44 -3 -5 -1 -18 5 -27 10 -17 10 -16 9 2 -1 11
-1 27 0 35 1 13 3 13 10 1 6 -9 6 -24 0 -38 -12 -32 -12 -33 5 -27 7 3 13 13
12 22 0 9 6 17 14 17 16 0 30 14 30 30 0 6 -4 4 -9 -3 -10 -17 -21 -17 -31 -1
-10 15 -1 41 11 33 5 -3 9 0 9 5 0 16 -11 14 -32 -6 -15 -13 -21 -14 -31 -4
-9 10 -8 15 8 27 17 12 18 16 5 24 -8 5 -21 5 -30 0 -10 -6 -21 -3 -32 7 -13
12 -21 13 -31 5 -10 -9 -17 -8 -25 0 -7 7 -12 8 -12 2z m64 -12 c3 -5 -1 -9
-9 -9 -8 0 -12 4 -9 9 3 4 7 8 9 8 2 0 6 -4 9 -8z"/>
<path d="M4085 5150 c-3 -5 -3 -10 1 -10 4 0 0 -8 -8 -17 -18 -20 -16 -66 3
-89 10 -13 10 -17 0 -24 -7 -4 -9 -10 -4 -13 12 -8 28 5 28 23 0 8 8 14 18 14
21 -2 22 6 2 32 -11 13 -13 14 -9 3 3 -10 -1 -19 -10 -22 -18 -7 -26 2 -22 29
2 10 -1 22 -6 25 -5 3 -3 11 5 17 12 10 14 8 12 -13 -2 -14 -2 -25 0 -25 13 0
35 14 35 22 0 5 -4 6 -10 3 -5 -3 -10 -1 -10 5 0 7 6 10 14 7 8 -3 17 -1 20 6
3 9 5 8 5 -1 1 -7 5 -11 9 -8 8 5 12 -8 13 -48 0 -14 3 -16 12 -7 14 14 27 14
27 1 0 -6 -5 -9 -11 -7 -6 1 -14 -4 -17 -12 -3 -9 0 -11 7 -7 7 4 18 2 26 -4
13 -11 15 3 6 51 0 4 -8 6 -17 5 -9 0 -19 6 -21 14 -4 13 -3 13 6 0 10 -13 12
-13 21 0 5 8 10 10 10 4 0 -6 7 -11 15 -11 8 0 15 4 15 8 0 10 -30 20 -41 13
-5 -3 -25 3 -43 14 -19 11 -38 16 -43 11 -4 -4 -15 -4 -23 2 -12 9 -12 10 3 5
11 -3 16 -2 12 4 -8 13 -22 13 -30 0z"/>
<path d="M4035 5130 c-3 -5 -2 -10 3 -10 11 0 9 -51 -3 -69 -5 -9 -3 -12 6 -9
8 3 14 21 15 46 1 42 -9 62 -21 42z"/>
<path d="M1149 5092 c-13 -18 -16 -28 -9 -37 11 -14 3 -45 -12 -45 -5 0 -7 4
-4 9 3 5 -3 11 -14 14 -13 3 -20 0 -20 -10 0 -8 5 -11 13 -8 6 4 4 0 -5 -8
-23 -19 -23 -34 1 -47 28 -14 36 -13 21 5 -7 8 -16 12 -21 9 -5 -3 -9 0 -9 5
0 12 2 12 43 15 19 1 32 9 42 29 10 20 11 27 2 25 -7 -2 -12 1 -12 7 0 5 5 9
10 7 6 -1 11 8 12 20 2 16 -1 18 -10 9 -6 -6 -15 -11 -21 -11 -5 0 -1 6 9 14
24 17 51 10 35 -9 -8 -9 -7 -14 2 -18 10 -4 10 -6 -1 -6 -11 -1 -11 -4 -1 -16
15 -18 35 -20 23 -2 -11 16 -11 61 -1 68 5 3 -5 6 -22 6 -21 0 -37 -8 -51 -25z"/>
<path d="M1310 5100 c0 -5 5 -10 10 -10 6 0 10 5 10 10 0 6 -4 10 -10 10 -5 0
-10 -4 -10 -10z"/>
<path d="M3990 5100 c0 -5 5 -10 10 -10 6 0 10 5 10 10 0 6 -4 10 -10 10 -5 0
-10 -4 -10 -10z"/>
<path d="M4136 5093 c-4 -10 2 -28 14 -45 15 -20 16 -26 5 -22 -8 4 -15 1 -15
-5 0 -6 4 -11 9 -11 5 0 17 -3 26 -6 14 -6 14 -3 4 20 -7 14 -17 26 -22 26 -5
0 -3 8 4 17 12 15 12 16 -5 10 -16 -6 -17 -5 -7 7 7 8 8 17 3 20 -6 3 -13 -2
-16 -11z"/>
<path d="M1355 5080 c-3 -5 -1 -10 4 -10 6 0 11 5 11 10 0 6 -2 10 -4 10 -3 0
-8 -4 -11 -10z"/>
<path d="M4230 5080 c0 -3 5 -11 12 -18 9 -9 9 -12 -1 -12 -10 0 -11 -3 -2
-14 15 -17 -11 -30 -28 -13 -6 6 -14 8 -17 4 -12 -12 3 -20 43 -23 20 -1 33 0
28 4 -6 4 -11 16 -12 27 -2 18 -1 18 9 -2 6 -13 15 -23 20 -23 5 0 7 4 4 9 -3
5 1 11 9 15 8 3 17 0 21 -6 4 -6 3 -8 -3 -5 -6 4 -14 0 -17 -9 -5 -12 -2 -15
11 -10 10 4 14 4 11 0 -4 -4 -3 -15 3 -25 5 -11 6 -19 1 -19 -5 0 -9 -6 -9
-14 0 -8 6 -12 12 -10 8 3 11 20 8 46 -7 52 -28 104 -37 89 -4 -6 -4 -11 1
-11 4 0 1 -4 -7 -10 -20 -13 -44 8 -29 26 8 10 6 13 -10 11 -12 -1 -21 -4 -21
-7z"/>
<path d="M1227 5063 c-11 -17 13 -28 26 -13 9 10 9 11 0 6 -6 -3 -13 -1 -15 6
-3 9 -6 9 -11 1z"/>
<path d="M1290 5060 c0 -6 -4 -8 -10 -5 -5 3 -10 2 -10 -3 0 -16 -51 -34 -65
-22 -12 10 -25 4 -25 -11 0 -5 7 -6 15 -3 8 4 17 -1 21 -9 3 -9 12 -13 19 -11
7 3 16 1 19 -4 3 -5 18 -7 33 -5 16 2 34 5 41 5 7 1 10 9 7 19 -5 13 -1 17 14
16 14 -1 17 -5 11 -11 -17 -17 -11 -29 8 -15 16 13 16 13 -1 -7 -9 -11 -14
-24 -11 -27 4 -4 13 1 21 11 8 9 11 11 7 3 -5 -10 -3 -12 6 -6 9 5 11 4 6 -3
-10 -17 9 -15 24 3 6 8 17 13 22 12 6 -1 13 4 15 11 4 10 -2 10 -26 -2 -30
-16 -31 -16 -45 13 -14 26 -19 28 -68 26 -46 -3 -49 -1 -29 10 15 8 20 15 12
19 -6 4 -11 2 -11 -4z m10 -40 c0 6 5 8 11 4 16 -9 -6 -21 -34 -18 -12 1 -29
3 -37 4 -10 1 -9 4 5 9 11 5 28 4 38 -1 11 -6 17 -5 17 2z"/>
<path d="M3999 5060 c-9 -5 -25 -8 -35 -6 -14 3 -19 -2 -21 -22 -1 -19 1 -22
9 -11 8 12 9 12 5 -1 -2 -9 -13 -14 -29 -12 -26 3 -27 -2 -15 -101 2 -20 20
-24 26 -6 2 6 -1 9 -6 6 -6 -4 -9 4 -7 18 1 14 -3 25 -9 25 -6 0 -2 7 9 16 17
14 17 15 1 10 -11 -4 -16 -2 -12 5 4 6 13 8 21 5 7 -3 20 5 29 17 8 12 18 21
20 20 12 -7 26 -2 20 7 -3 5 -12 7 -19 4 -8 -3 -16 -1 -20 4 -6 10 24 10 41
-1 9 -6 23 12 23 29 0 7 -14 4 -31 -6z"/>
<path d="M4090 5059 c0 -5 5 -7 10 -4 6 3 10 8 10 11 0 2 -4 4 -10 4 -5 0 -10
-5 -10 -11z"/>
<path d="M1478 5033 c-10 -2 -18 -9 -18 -14 0 -11 27 -12 33 -1 2 4 2 2 1 -5
-2 -7 1 -15 6 -18 6 -4 10 -11 10 -18 0 -6 -6 -2 -14 8 -14 19 -15 19 -35 1
-12 -11 -21 -15 -21 -11 0 4 -8 1 -17 -7 -25 -22 -93 -12 -79 11 3 4 -1 8 -9
8 -8 0 -15 -3 -15 -7 0 -9 -52 -6 -68 4 -7 4 -16 5 -21 1 -6 -3 -14 2 -19 12
-9 15 -12 15 -33 1 -13 -8 -34 -14 -47 -13 -21 2 -21 0 -8 -13 14 -14 17 -14
34 1 18 16 19 16 17 -5 -2 -21 -7 -23 -47 -21 l-46 2 8 -29 c11 -39 19 -50 33
-50 7 0 6 4 -3 11 -11 8 -9 9 10 3 22 -6 24 -5 11 10 -8 9 -19 15 -26 13 -6
-3 -11 5 -12 17 0 11 1 15 4 8 4 -10 8 -10 19 -1 14 11 16 9 18 -20 1 -8 6
-16 13 -18 6 -2 10 4 9 14 -2 10 8 25 23 35 14 10 21 18 14 18 -6 0 -11 9 -10
19 0 11 5 17 9 15 5 -3 5 -10 2 -16 -5 -7 -2 -8 6 -3 9 5 11 4 6 -3 -10 -16 6
-15 24 1 11 9 11 8 0 -7 -13 -18 -13 -19 1 -14 9 4 29 0 43 -7 26 -14 27 -13
21 8 -4 14 -3 18 3 9 5 -7 16 -10 25 -6 12 4 17 1 17 -14 0 -25 25 -48 35 -32
4 6 13 9 20 6 7 -2 16 2 19 10 5 12 1 14 -17 9 -12 -4 -24 -8 -27 -9 -3 0 -5
3 -5 9 0 5 6 9 12 7 12 -3 74 25 83 37 3 4 13 -1 23 -11 9 -10 12 -18 6 -18
-5 0 -7 -5 -4 -10 3 -6 -1 -13 -9 -16 -9 -3 -14 -10 -11 -14 3 -5 1 -11 -5
-15 -5 -3 -10 -11 -10 -17 0 -6 7 -5 17 3 15 13 15 12 2 -8 -7 -12 -16 -19
-19 -15 -9 12 -41 11 -37 -2 3 -6 11 -10 18 -8 9 2 8 -3 -4 -16 -9 -10 -16
-21 -15 -23 2 -2 -2 2 -8 9 -9 10 -13 9 -18 -4 -4 -10 -3 -21 2 -26 11 -11 54
21 46 34 -5 8 -1 9 12 4 10 -4 15 -4 12 0 -4 3 3 21 16 38 12 17 23 40 25 51
6 73 4 125 -6 124 -5 -1 -16 -3 -25 -6z"/>
<path d="M4015 5019 c-62 -32 -109 -81 -61 -63 9 3 13 10 10 15 -3 5 3 6 12 2
11 -4 15 -3 10 5 -3 6 2 16 13 22 17 9 20 8 14 -6 -5 -14 -3 -14 15 -3 15 10
18 16 9 21 -8 5 -5 7 8 6 11 -2 21 1 23 7 6 17 -13 15 -53 -6z"/>
<path d="M1430 5020 c0 -5 5 -10 10 -10 6 0 10 5 10 10 0 6 -4 10 -10 10 -5 0
-10 -4 -10 -10z"/>
<path d="M4110 5020 c0 -5 6 -10 13 -11 6 0 2 -5 -10 -11 -23 -11 -31 -28 -13
-28 6 0 10 6 10 13 1 6 7 1 14 -13 14 -24 14 -24 11 10 -2 19 -3 38 -4 43 -2
11 -21 9 -21 -3z"/>
<path d="M4035 4987 c-12 -10 -14 -16 -7 -21 16 -9 34 2 26 16 -4 7 -2 8 4 4
6 -4 9 -13 5 -21 -3 -11 -1 -13 10 -9 19 7 32 -13 18 -30 -6 -7 -8 -16 -4 -19
9 -9 23 -9 22 1 -3 19 2 33 11 27 6 -3 10 -1 10 4 0 6 -5 11 -11 11 -5 0 -7 4
-4 10 3 5 0 7 -9 4 -8 -3 -19 3 -26 15 -13 25 -20 26 -45 8z"/>
<path d="M4146 4991 c-3 -5 -3 -16 0 -24 3 -9 -4 -25 -15 -36 -12 -12 -21 -24
-20 -28 1 -12 -15 -13 -31 -3 -12 7 -12 12 -2 22 16 16 16 29 0 27 -31 -4 -49
2 -69 24 -12 12 -19 16 -15 10 4 -8 -2 -17 -18 -25 -14 -6 -26 -15 -26 -20 0
-5 -5 -6 -11 -2 -8 4 -8 0 0 -15 9 -16 9 -26 0 -43 -10 -18 -9 -20 6 -15 9 4
20 7 23 7 4 0 0 5 -8 10 -12 8 -12 10 -1 10 10 0 11 3 2 14 -9 11 -7 13 11 11
13 -2 28 -4 33 -5 25 -6 28 2 5 15 -15 9 -19 14 -10 15 13 0 13 1 0 11 -13 9
-13 10 0 6 8 -2 14 -10 12 -17 -2 -7 5 -10 20 -6 13 3 17 3 10 0 -10 -5 -8
-10 7 -20 13 -10 18 -21 14 -32 -6 -15 -5 -16 13 -2 18 14 18 14 5 -2 -16 -22
1 -24 19 -3 7 8 19 15 26 15 8 0 13 3 13 8 -4 21 2 32 14 26 6 -4 9 -4 5 1 -4
4 -3 14 3 22 9 10 8 17 -2 31 -13 16 -13 16 5 2 16 -13 19 -13 15 -1 -6 18
-25 25 -33 12z m-166 -51 c0 -5 -5 -10 -11 -10 -5 0 -7 5 -4 10 3 6 8 10 11
10 2 0 4 -4 4 -10z"/>
<path d="M4181 4968 c-8 -18 -14 -37 -15 -41 0 -4 -7 -11 -14 -16 -8 -5 -13
-11 -13 -15 3 -20 0 -26 -10 -21 -5 4 -18 0 -28 -9 -16 -15 -20 -15 -49 0 -32
16 -44 28 -18 18 17 -6 31 12 16 21 -5 3 -16 3 -22 -2 -21 -12 -38 -12 -38 0
0 7 -4 6 -10 -3 -6 -9 -5 -17 3 -22 6 -4 15 -2 19 5 6 9 8 8 9 -3 1 -8 1 -19
0 -24 -1 -5 6 -6 14 -2 25 9 37 -2 25 -24 -7 -13 -5 -21 7 -31 14 -12 16 -12
11 2 -8 19 -1 29 35 52 19 13 27 14 27 5 0 -10 2 -10 9 0 6 11 11 10 25 -3 9
-9 14 -20 11 -25 -3 -5 -1 -11 5 -15 5 -3 10 -1 10 5 0 7 8 9 20 5 15 -5 18
-3 14 8 -3 8 -13 14 -22 13 -11 -1 -16 6 -16 17 1 9 -3 16 -10 15 -6 -2 -12 2
-13 7 0 6 4 9 9 7 6 -2 8 4 4 13 -3 9 -2 13 4 10 6 -3 10 -13 10 -21 0 -8 5
-14 10 -14 17 0 7 34 -14 46 -13 8 -15 13 -7 18 6 4 11 2 11 -3 0 -6 5 -11 11
-11 5 0 7 5 4 10 -3 6 -1 10 5 10 7 0 10 -7 6 -15 -6 -17 2 -19 24 -5 13 9 13
10 0 10 -13 0 -13 2 -1 9 9 6 24 6 38 0 14 -5 25 -9 26 -9 10 0 4 49 -6 52
-26 10 -70 2 -74 -12 -4 -12 -3 -12 5 -1 7 9 12 10 16 2 4 -6 4 -11 -1 -12 -4
0 -18 -2 -31 -3 -16 -2 -19 1 -12 8 12 12 13 26 2 26 -4 0 -14 -15 -21 -32z
m110 -1 c-8 -8 -14 -7 -23 2 -11 10 -9 11 6 5 15 -6 17 -4 11 6 -6 9 -4 11 4
5 9 -5 10 -10 2 -18z"/>
<path d="M1450 4953 c-14 -8 -17 -12 -8 -9 12 3 15 1 11 -9 -3 -8 -8 -13 -13
-10 -4 2 -12 -7 -18 -20 -13 -28 -46 -27 -67 2 -11 14 -16 15 -25 6 -7 -6 -9
-16 -6 -22 11 -18 26 -13 20 7 -5 14 -4 14 4 2 6 -8 8 -18 6 -22 -3 -4 2 -8
10 -8 9 0 16 -6 16 -12 0 -9 4 -8 10 2 16 25 11 -3 -6 -30 l-15 -25 7 25 c6
22 5 23 -9 11 -9 -7 -14 -17 -11 -22 3 -5 -2 -6 -11 -3 -11 5 -14 2 -9 -9 3
-9 12 -13 19 -11 7 3 16 0 21 -7 5 -8 3 -10 -6 -4 -7 4 -16 2 -21 -6 -7 -12
-9 -11 -9 1 0 13 -1 13 -11 0 -8 -12 -9 -11 -5 6 4 14 2 21 -9 21 -10 0 -13
-7 -9 -24 4 -13 2 -23 -5 -23 -6 0 -8 6 -5 14 4 9 0 14 -10 12 -19 -3 -34 -16
-17 -16 7 0 10 -4 7 -9 -6 -9 33 -8 82 4 23 5 31 12 28 22 -9 23 12 53 32 46
14 -5 15 -3 5 8 -20 20 -16 41 6 34 20 -6 35 15 40 56 0 5 5 8 10 5 5 -4 8 1
7 9 -3 23 -9 24 -36 8z m0 -52 c0 -6 -4 -12 -8 -15 -5 -3 -9 1 -9 9 0 8 4 15
9 15 4 0 8 -4 8 -9z"/>
<path d="M1196 4937 c-9 -7 -18 -21 -20 -31 -1 -10 -18 -27 -37 -38 -19 -11
-26 -17 -17 -14 12 3 15 1 11 -10 -3 -9 1 -14 12 -14 10 0 13 4 9 13 -5 8 -2
8 9 -2 10 -8 17 -9 17 -3 0 6 -8 16 -17 21 -10 6 -13 11 -7 11 5 0 16 -6 23
-12 10 -11 12 -10 11 2 -4 30 0 39 17 33 11 -4 14 -3 9 6 -5 7 -15 10 -23 7
-8 -3 -11 -1 -8 5 4 5 16 7 28 3 20 -6 21 -5 7 12 -14 17 -14 18 2 6 9 -8 22
-11 28 -7 5 3 10 2 10 -2 0 -5 9 -9 20 -9 11 0 19 5 17 11 -2 5 -10 10 -18 10
-8 0 -17 5 -21 10 -5 6 -8 4 -8 -4 0 -12 -3 -12 -12 -3 -15 15 -20 15 -42 -1z"/>
<path d="M1314 4923 c-10 -15 -23 -34 -28 -42 -9 -12 -8 -13 5 -9 20 8 46 -6
30 -16 -6 -4 -11 -2 -11 3 0 6 -8 3 -18 -6 -11 -10 -18 -20 -16 -23 1 -3 -4
-13 -11 -24 -9 -12 -20 -16 -35 -11 -20 6 -21 5 -11 -14 12 -22 27 -30 16 -8
-4 6 1 3 11 -8 13 -15 15 -16 11 -3 -6 18 15 42 28 30 5 -4 5 -1 1 6 -4 6 -2
12 3 12 21 0 26 2 54 22 l28 20 -30 19 c-36 22 -37 26 -14 51 9 10 14 21 10
24 -3 3 -13 -7 -23 -23z m36 -78 c0 -2 -13 -8 -29 -13 -22 -8 -29 -8 -25 1 3
10 54 21 54 12z"/>
<path d="M4255 4941 c3 -6 -5 -16 -19 -22 -14 -7 -23 -16 -19 -22 3 -5 10 -3
15 4 7 11 8 9 4 -4 -4 -12 -2 -17 6 -14 7 2 12 11 10 19 -4 25 29 31 52 9 19
-20 19 -20 -7 -32 -27 -12 -34 -24 -19 -32 4 -2 1 -2 -6 -1 -7 2 -12 -3 -10
-13 2 -13 -5 -17 -32 -18 -33 -1 -36 -4 -31 -35 0 -5 9 -6 18 -3 26 10 83 64
78 74 -3 4 2 12 10 17 9 5 17 15 18 23 2 8 7 20 11 28 6 9 5 12 -1 8 -6 -4
-28 0 -48 9 -20 8 -34 10 -30 5z m-25 -145 c-7 -7 -13 -7 -20 0 -6 6 -3 10 10
10 13 0 16 -4 10 -10z"/>
<path d="M4269 4913 c-1 -5 -1 -12 0 -17 3 -13 -22 -26 -39 -21 -19 6 -47 -11
-37 -22 5 -4 12 -1 16 6 7 11 10 9 15 -7 4 -11 14 -23 22 -26 8 -3 12 -1 9 4
-9 15 12 48 36 55 16 5 18 10 8 21 -12 15 -28 19 -30 7z"/>
<path d="M1226 4893 c-9 -21 -8 -23 9 -17 8 4 12 11 8 17 -3 6 -1 7 5 3 6 -4
9 -13 6 -21 -4 -8 -10 -12 -15 -9 -5 3 -9 1 -9 -4 0 -13 27 -23 45 -16 8 4 12
11 9 16 -4 6 -10 5 -15 -3 -5 -8 -9 -9 -9 -3 0 6 7 17 15 24 22 19 18 27 -14
28 -18 0 -32 -5 -35 -15z"/>
<path d="M1386 4902 c-3 -5 1 -9 9 -9 8 0 15 4 15 9 0 4 -4 8 -9 8 -6 0 -12
-4 -15 -8z"/>
<path d="M1198 4873 c6 -2 9 -10 5 -16 -11 -17 -12 -76 -2 -82 4 -3 8 4 8 15
1 11 1 30 2 41 0 24 9 20 13 -7 4 -24 20 -28 36 -9 8 10 9 15 1 15 -6 0 -14 0
-18 1 -5 0 -14 11 -21 25 -7 13 -18 24 -25 23 -9 0 -9 -2 1 -6z"/>
<path d="M3956 4858 c-17 -9 -17 -11 3 -29 27 -25 39 -24 16 1 -18 20 -18 21
0 14 13 -5 16 -4 11 4 -11 18 0 14 15 -5 8 -9 9 -14 3 -10 -7 4 -11 -2 -11
-18 0 -14 3 -22 7 -20 5 3 10 1 12 -4 1 -5 10 -11 18 -13 8 -2 18 -7 22 -13 4
-5 9 -7 13 -4 3 3 -4 18 -15 32 -25 31 -26 37 -8 48 9 6 5 8 -12 7 -14 -2 -24
2 -23 7 2 14 -28 16 -51 3z m71 -34 c-3 -4 -2 -16 4 -28 10 -20 9 -20 -5 -2
-14 17 -13 36 1 36 4 0 3 -3 0 -6z"/>
<path d="M4090 4833 c-20 -14 -21 -17 -6 -25 21 -12 39 0 32 21 -6 15 -5 15 7
-1 12 -15 14 -15 25 0 10 15 11 15 6 1 -3 -10 0 -20 5 -24 6 -3 8 -11 5 -17
-4 -7 -2 -8 4 -4 7 4 12 2 12 -3 0 -6 -7 -11 -16 -11 -10 0 -14 6 -11 15 4 8
2 17 -3 20 -10 6 -11 5 -15 -32 -2 -20 1 -22 24 -16 36 8 36 9 21 40 -8 16
-14 32 -14 38 -1 16 -52 15 -76 -2z"/>
<path d="M1156 4821 c-2 -3 2 -12 10 -19 8 -7 14 -11 15 -10 6 25 4 35 -8 35
-7 0 -15 -3 -17 -6z"/>
<path d="M4111 4797 c-13 -16 -4 -50 11 -41 5 3 5 11 -2 19 -8 10 -7 14 2 18
7 2 10 7 7 11 -3 4 -11 0 -18 -7z"/>
<path d="M4074 4789 c-3 -6 0 -18 9 -26 13 -13 14 -12 10 11 -6 29 -9 31 -19
15z"/>
<path d="M2653 4602 c-13 -2 -23 -10 -23 -18 0 -17 16 -19 23 -1 4 9 8 8 17
-3 10 -13 11 -12 6 5 -6 20 -6 20 9 1 13 -18 19 -15 16 6 0 4 6 5 15 1 15 -5
15 -7 0 -15 -9 -5 -16 -14 -16 -19 0 -6 5 -7 12 -3 6 4 8 3 5 -3 -4 -6 -1 -13
7 -16 12 -5 15 22 7 64 -1 6 -42 7 -78 1z"/>
<path d="M2745 4555 c0 -25 3 -45 8 -45 4 0 10 0 15 0 4 0 1 4 -7 9 -9 6 -10
11 -2 15 6 4 12 2 12 -3 1 -6 2 -16 3 -23 0 -6 7 -13 15 -16 8 -3 11 0 7 7 -4
6 -2 11 4 11 7 0 5 7 -4 16 -9 8 -13 20 -10 26 4 6 -1 8 -15 3 -13 -4 -21 -2
-21 5 0 6 4 8 10 5 6 -4 7 1 4 12 -4 11 -3 14 3 6 4 -6 15 -13 23 -15 8 -2 22
-12 31 -23 10 -11 21 -17 25 -13 9 9 -46 59 -57 52 -4 -2 -10 0 -14 6 -16 25
-30 8 -30 -35z"/>
<path d="M2610 4582 c0 -7 -4 -11 -9 -7 -5 3 -23 -7 -39 -22 -32 -31 -82 -101
-64 -89 7 4 12 2 12 -3 0 -6 5 -11 11 -11 8 0 8 4 0 13 -8 11 -6 13 9 12 11
-1 23 -5 27 -10 5 -4 3 -5 -3 -2 -7 4 -14 0 -17 -7 -4 -10 1 -14 14 -13 20 1
27 31 9 42 -15 9 -12 28 4 22 7 -3 18 -1 24 5 8 8 16 7 27 -2 14 -12 16 -12
15 1 -4 27 0 40 11 33 8 -4 7 -9 -2 -15 -12 -7 -12 -9 0 -9 11 0 11 -3 1 -15
-7 -8 -8 -15 -2 -15 5 0 15 7 22 15 7 8 8 15 3 15 -5 0 -9 9 -9 20 0 27 5 25
16 -5 5 -14 13 -25 17 -24 27 5 45 -2 40 -16 -4 -8 -2 -17 4 -21 6 -3 8 -13 5
-21 -5 -11 -2 -13 10 -9 8 3 18 6 20 6 2 0 4 5 4 11 0 5 -4 7 -10 4 -5 -3 -11
-1 -11 4 -4 33 -20 61 -34 61 -8 0 -16 9 -20 19 -4 15 -13 19 -35 16 -20 -3
-33 1 -39 13 -7 11 -11 12 -11 4z m1 -21 c5 8 9 10 9 4 0 -22 -18 -35 -50 -39
-31 -3 -32 -2 -16 9 10 8 24 11 32 8 9 -3 13 0 11 8 -2 8 -2 10 1 5 2 -4 8 -2
13 5z m-80 -74 c-10 -9 -11 -8 -5 6 3 10 9 15 12 12 3 -3 0 -11 -7 -18z"/>
<path d="M2802 4536 c8 -8 13 -31 12 -55 -1 -33 2 -41 13 -37 8 3 17 6 19 6 2
0 4 5 4 11 0 5 -4 7 -10 4 -5 -3 -10 -1 -10 5 0 7 7 9 16 6 12 -4 14 -1 9 13
-3 11 0 23 6 27 8 4 9 3 5 -4 -8 -14 6 -45 20 -42 18 3 14 -19 -5 -30 -29 -15
-27 -34 2 -20 20 10 21 10 4 -4 -18 -14 -17 -14 3 -21 18 -6 19 -9 8 -23 -11
-13 -11 -14 1 -7 9 5 12 4 7 -3 -4 -6 -14 -8 -24 -5 -15 6 -15 4 1 -14 18 -21
18 -22 0 -32 -10 -6 -12 -11 -6 -11 8 0 4 -10 -9 -25 -12 -14 -28 -23 -35 -21
-7 3 -15 1 -18 -3 -3 -5 3 -12 12 -15 11 -5 26 4 45 26 15 18 28 38 29 43 0 6
3 19 6 30 4 18 5 55 2 103 -1 27 -21 62 -31 56 -5 -3 -8 2 -6 12 2 14 -3 18
-19 17 -11 -1 -27 4 -33 12 -7 8 -17 15 -22 15 -5 0 -3 -6 4 -14z"/>
<path d="M2585 4500 c-4 -6 -12 -7 -18 -4 -9 5 -9 3 0 -6 10 -10 15 -11 27 -1
12 10 17 8 26 -8 8 -16 15 -19 28 -12 9 4 24 6 32 3 13 -5 13 -3 0 13 -15 18
-14 18 13 1 25 -17 40 -35 17 -21 -6 4 -17 1 -25 -5 -12 -10 -15 -10 -15 0 0
7 -10 0 -21 -14 -21 -26 -21 -28 -4 -44 17 -16 17 -16 12 1 -4 9 -4 23 -1 30
5 13 47 17 59 6 3 -4 0 -7 -7 -6 -31 1 -48 -4 -48 -13 0 -12 22 -9 32 5 4 5
10 6 15 2 4 -5 1 -13 -7 -18 -13 -9 -13 -10 1 -6 9 3 22 0 28 -6 15 -15 14 5
-1 23 -7 8 -4 7 8 -3 27 -22 40 -22 23 1 -13 16 -13 16 5 2 11 -8 17 -10 14
-5 -4 6 -2 17 4 25 8 13 9 12 5 -1 -3 -9 2 -27 10 -39 12 -17 13 -24 3 -30 -7
-4 -8 -10 -3 -13 12 -8 28 5 28 23 0 8 8 14 18 14 13 -2 16 3 12 17 -4 12 1
23 14 31 25 15 27 25 6 25 -8 0 -17 -8 -20 -17 -6 -20 -51 -21 -47 -2 1 7 -3
12 -9 12 -8 0 -7 6 2 18 13 15 12 16 -2 4 -14 -10 -18 -10 -23 3 -3 9 -11 13
-17 10 -6 -5 -5 -11 6 -19 9 -6 13 -18 10 -27 -7 -19 -51 -19 -47 0 1 7 -2 19
-8 25 -5 7 -6 17 -2 21 4 5 1 5 -5 1 -7 -4 -13 -3 -13 3 0 13 -24 8 -44 -8
-14 -12 -19 -11 -34 3 -22 19 -28 20 -37 6z m241 -79 c8 7 14 7 14 1 0 -12
-26 -23 -34 -15 -3 4 -6 11 -5 17 0 6 3 5 6 -2 4 -10 8 -10 19 -1z"/>
<path d="M2591 4476 c-7 -8 -10 -20 -6 -26 6 -9 -7 -14 -27 -11 -11 1 -10 -17
1 -23 5 -4 11 -3 14 1 2 5 2 2 1 -4 -2 -7 1 -13 6 -13 5 0 7 -6 4 -13 -3 -8 2
-20 11 -27 9 -8 15 -8 15 -2 0 6 -5 14 -11 18 -8 4 -7 9 2 15 8 5 9 9 4 9 -6
0 -11 9 -11 19 0 11 4 17 8 15 4 -3 8 0 8 5 0 6 -5 11 -11 11 -5 0 -7 5 -3 11
12 20 22 -11 18 -53 -3 -33 -1 -38 10 -29 7 6 17 7 22 3 5 -4 0 3 -10 16 -19
22 -19 22 0 44 10 12 14 18 7 15 -6 -4 -18 2 -26 13 -12 18 -16 18 -26 6z"/>
<path d="M2489 4423 c-3 -42 1 -86 6 -92 3 -3 13 3 23 14 16 17 16 18 0 12
-10 -4 -18 -2 -18 4 0 7 10 9 23 5 17 -4 24 -1 24 9 0 10 -7 14 -21 10 -12 -3
-15 -2 -8 1 10 5 9 9 -5 20 -17 13 -17 14 1 7 14 -5 17 -3 11 7 -5 9 -4 11 4
6 6 -4 9 -11 6 -16 -3 -4 2 -11 11 -14 8 -3 12 -10 9 -16 -3 -5 -2 -10 4 -10
5 0 13 -9 16 -20 4 -11 11 -18 16 -14 6 4 4 13 -5 23 -9 10 -16 22 -16 28 0
13 -57 63 -71 63 -5 0 -10 -12 -10 -27z"/>
<path d="M2666 4394 c-9 -24 -7 -31 5 -14 9 13 10 13 6 0 -2 -8 -10 -14 -16
-12 -6 1 -16 3 -22 5 -6 1 -14 -4 -16 -11 -3 -7 -1 -12 4 -11 20 3 34 -2 28
-11 -3 -5 -2 -10 3 -10 5 0 15 11 22 25 7 13 16 24 19 23 20 -2 31 3 26 12 -4
6 -11 8 -16 4 -5 -3 -16 -1 -23 5 -10 9 -15 8 -20 -5z"/>
<path d="M2735 4379 c-22 -11 -48 -31 -58 -42 -15 -19 -19 -20 -30 -7 -15 19
-32 19 -48 3 -18 -18 -26 -16 -34 10 -4 14 -8 17 -12 9 -3 -7 0 -19 6 -26 9
-11 9 -15 -1 -18 -8 -3 -6 -7 5 -11 9 -3 17 -2 17 3 0 17 39 31 58 21 14 -8
18 -20 16 -56 -2 -38 0 -44 11 -35 8 7 18 9 24 6 5 -3 12 1 15 10 9 24 7 29
-6 16 -15 -15 -28 -16 -28 -2 0 6 5 9 11 8 6 -2 14 3 16 10 3 8 -1 10 -11 6
-9 -3 -16 -1 -16 6 0 6 5 8 10 5 6 -3 10 -2 10 4 0 5 -5 11 -11 13 -6 2 -1 12
11 23 13 12 20 14 18 6 -2 -7 3 -16 10 -18 11 -4 12 -1 3 15 -8 15 -7 21 3 25
10 4 12 0 8 -15 -5 -21 -5 -21 14 -2 13 12 16 22 10 27 -6 4 -2 6 9 5 11 -2
21 1 23 7 6 17 -13 15 -53 -6z"/>
<path d="M2830 4380 c0 -5 5 -10 10 -10 6 0 10 5 10 10 0 6 -4 10 -10 10 -5 0
-10 -4 -10 -10z"/>
<path d="M2849 4370 c-9 -9 -23 -20 -30 -22 -8 -3 -10 -9 -6 -14 4 -5 13 -2
18 6 9 13 10 12 6 -2 -7 -19 18 -32 39 -20 13 7 13 10 0 21 -20 17 -20 31 -1
31 8 0 15 5 15 10 0 16 -23 10 -41 -10z m15 -36 c3 -8 2 -12 -4 -9 -6 3 -10
10 -10 16 0 14 7 11 14 -7z"/>
<path d="M2756 4344 c-21 -20 -20 -32 2 -30 10 0 16 -6 16 -16 -2 -19 -1 -19
32 -23 12 -1 26 -5 32 -9 6 -4 16 3 22 15 8 15 9 19 1 15 -6 -4 -11 -3 -11 2
0 11 -49 34 -59 28 -4 -3 -13 -1 -20 3 -9 6 -10 11 -2 15 6 4 11 2 11 -4 0 -6
5 -8 10 -5 11 7 4 25 -10 25 -5 0 -16 -7 -24 -16z m51 -39 c0 -8 -4 -15 -9
-15 -10 0 -11 14 -1 23 9 10 10 9 10 -8z m28 -5 c3 -5 1 -10 -4 -10 -6 0 -11
5 -11 10 0 6 2 10 4 10 3 0 8 -4 11 -10z"/>
<path d="M2522 4337 c-7 -8 -8 -18 -4 -22 4 -5 -1 -5 -10 -2 -15 5 -16 4 -5
-13 6 -11 15 -20 20 -20 4 0 5 5 1 11 -5 8 -1 8 14 0 12 -6 24 -16 27 -22 5
-7 11 -6 20 1 8 7 19 9 26 5 8 -5 9 -1 4 14 -3 12 -2 21 3 21 6 0 9 -11 8 -24
-2 -17 1 -23 11 -19 10 4 11 9 2 19 -9 11 -8 14 2 14 10 1 8 4 -3 11 -12 7
-24 7 -35 0 -10 -6 -13 -11 -8 -11 6 0 3 -4 -4 -9 -17 -11 -55 5 -46 19 3 6 2
17 -3 26 -7 13 -10 13 -20 1z"/>
<path d="M2690 4325 c0 -12 25 -55 31 -55 5 0 -1 -16 -13 -36 -13 -22 -17 -35
-9 -33 7 3 11 7 9 11 -2 3 6 15 16 27 19 20 19 22 1 41 -17 18 -17 20 -2 14
27 -10 20 10 -8 23 -14 6 -25 10 -25 8z"/>
<path d="M2746 4295 c-3 -8 -3 -22 1 -31 4 -10 -1 -20 -11 -26 -9 -5 -14 -13
-11 -17 2 -5 -2 -14 -10 -21 -8 -7 -15 -17 -15 -22 0 -6 7 -5 15 2 12 10 15
10 15 -1 0 -12 2 -12 9 -1 4 8 12 13 17 12 5 0 18 2 29 6 11 3 24 7 29 8 12 1
20 26 9 26 -5 0 -18 7 -29 15 -14 11 -15 14 -3 9 10 -3 20 0 25 7 4 8 3 10 -4
5 -6 -4 -24 0 -39 8 -16 8 -22 15 -15 16 6 0 12 5 12 10 0 15 -17 12 -24 -5z
m68 -75 c4 -4 0 -7 -10 -7 -11 1 -22 7 -26 12 -4 6 -8 2 -8 -9 0 -12 -5 -16
-15 -12 -8 3 -15 0 -15 -6 0 -6 -3 -9 -6 -6 -3 4 -1 15 5 26 8 16 18 19 38 16
16 -3 32 -9 37 -14z"/>
<path d="M2525 4270 c-3 -6 1 -13 9 -16 9 -3 13 -10 10 -15 -3 -5 3 -6 12 -2
11 4 15 3 10 -5 -4 -7 10 -20 36 -33 24 -12 44 -21 46 -20 1 0 3 1 5 0 23 -7
37 -5 37 7 0 8 -4 14 -10 14 -5 0 -10 -5 -10 -11 0 -8 -4 -9 -13 0 -8 6 -18 7
-22 3 -5 -4 -5 -2 -1 5 4 7 12 10 19 8 15 -6 44 12 34 21 -3 4 -13 1 -21 -5
-10 -9 -16 -9 -21 -1 -5 8 -11 6 -18 -4 -9 -12 -16 -13 -27 -5 -13 9 -12 10 3
5 9 -3 17 -1 17 4 0 6 -7 10 -15 10 -8 0 -25 11 -37 25 -23 27 -33 31 -43 15z"/>
<path d="M2585 4261 c-7 -12 12 -24 25 -16 6 3 10 2 10 -4 0 -6 7 -8 15 -5 8
4 12 10 9 15 -3 5 -9 7 -14 4 -5 -3 -11 -1 -15 5 -8 13 -22 13 -30 1z"/>
</g>
</svg>
